<?xml version="1.0" standalone="no"?>
<!DOCTYPE svg PUBLIC "-//W3C//DTD SVG 20010904//EN"
 "http://www.w3.org/TR/2001/REC-SVG-20010904/DTD/svg10.dtd">
<svg version="1.0" xmlns="http://www.w3.org/2000/svg"
 width="441.000000pt" height="566.000000pt" viewBox="0 0 441.000000 566.000000"
 preserveAspectRatio="xMidYMid meet">
<metadata>
Created by potrace 1.10, written by Peter Selinger 2001-2011
</metadata>
<g transform="translate(0.000000,566.000000) scale(0.050000,-0.050000)"
fill="#000000" stroke="none">
<path d="M5725 11120 c-14 -22 -38 -40 -54 -40 -42 0 -111 -98 -111 -156 0
-28 -9 -79 -20 -113 -10 -33 -41 -137 -68 -231 -73 -255 -86 -285 -245 -612
-81 -166 -147 -317 -147 -335 0 -18 -8 -33 -18 -33 -9 0 -24 -43 -31 -95 -7
-52 -21 -122 -31 -155 -9 -33 -32 -114 -51 -179 -19 -66 -58 -168 -88 -226
l-55 -107 -33 46 c-31 44 -32 42 -20 -59 8 -72 5 -105 -10 -105 -13 0 -23 -14
-23 -31 0 -17 -9 -26 -20 -19 -11 7 -20 -6 -20 -29 0 -22 -9 -41 -20 -41 -11
0 -20 -14 -20 -31 0 -17 -17 -69 -38 -115 -21 -46 -58 -133 -83 -194 -25 -60
-56 -123 -69 -140 -57 -72 -74 -175 -36 -215 33 -36 73 -31 58 7 -9 23 -4 29
18 21 20 -8 30 1 30 28 0 21 9 39 20 39 11 0 18 -11 15 -25 -3 -16 15 -24 48
-21 32 2 59 -9 65 -26 8 -20 0 -28 -21 -24 -18 3 -37 -5 -41 -17 -5 -16 7 -20
36 -12 39 10 43 5 32 -37 -11 -45 -10 -46 16 -11 27 36 29 36 41 -13 9 -36 22
-48 44 -39 20 7 27 4 18 -10 -8 -13 11 -20 55 -19 52 1 81 -13 129 -66 34 -37
82 -70 107 -74 25 -4 49 -16 53 -27 3 -10 15 -14 25 -8 10 6 24 -3 30 -20 13
-34 48 -43 48 -12 0 11 -27 34 -60 51 -33 17 -60 44 -60 61 0 16 -9 29 -19 29
-11 0 -15 12 -9 28 6 15 -14 47 -46 71 -31 25 -54 51 -51 58 3 7 -8 29 -25 48
-35 41 -39 77 -8 70 54 -12 57 83 3 125 -37 29 -46 47 -30 57 49 30 40 172
-10 155 -27 -9 -26 -4 7 24 25 21 39 53 35 80 -4 25 7 66 23 92 17 25 26 60
19 77 -6 17 -2 37 10 44 12 8 16 23 9 34 -7 11 4 56 24 100 29 65 31 88 12
119 -14 21 -16 38 -6 38 10 0 22 -11 27 -24 18 -56 50 7 35 72 -8 37 -7 80 2
95 10 15 18 108 18 207 2 256 44 434 120 510 6 6 27 42 49 80 21 39 51 82 65
96 14 15 26 41 26 57 0 17 18 54 40 82 24 30 36 67 29 88 -6 20 -3 37 7 37 11
0 26 -25 34 -55 l15 -55 27 62 c14 35 40 68 57 75 41 15 40 53 -1 53 -21 0
-28 11 -20 32 7 17 12 46 12 65 1 26 4 27 18 6 12 -19 21 -21 31 -5 8 13 23
17 35 10 13 -9 12 -18 -4 -28 -17 -11 -18 -19 -2 -29 12 -7 23 -2 24 13 1 14
4 40 7 56 2 17 6 60 8 96 2 45 11 62 26 52 16 -10 20 -4 12 17 -7 18 -5 35 4
39 9 3 36 38 60 76 l44 70 -8 -80 c-5 -44 -15 -95 -24 -114 -13 -30 -7 -32 49
-16 103 30 148 -28 73 -93 -59 -50 -55 -60 8 -26 30 16 39 14 39 -8 0 -32 -81
-59 -126 -42 -17 7 -37 1 -45 -13 -11 -17 -6 -21 18 -12 40 16 40 15 1 -63
-17 -35 -33 -103 -35 -150 -1 -48 -13 -100 -25 -115 -41 -53 -56 -85 -31 -70
44 27 9 -130 -36 -161 -22 -16 -41 -42 -41 -58 0 -16 -16 -30 -35 -31 -21 -1
-25 -5 -10 -11 44 -18 27 -59 -67 -154 -51 -51 -81 -93 -68 -93 14 0 60 38
104 85 l79 85 -14 -70 c-15 -75 -68 -168 -85 -151 -6 6 6 29 26 51 63 69 17
44 -68 -38 -45 -44 -82 -93 -82 -110 0 -36 31 -43 50 -12 26 42 45 18 23 -30
-13 -27 -37 -50 -55 -50 -46 0 -80 -84 -46 -115 35 -34 34 -35 77 45 20 39 46
70 56 70 11 0 5 -22 -13 -49 -41 -64 -41 -83 1 -48 30 24 32 21 19 -33 -8 -33
-16 -78 -17 -100 -1 -22 -11 -46 -21 -52 -10 -7 5 -13 34 -13 29 0 52 6 52 14
0 8 18 36 40 61 22 25 40 56 39 68 0 12 -22 -3 -50 -34 -66 -75 -62 -34 11
109 65 128 63 144 -8 67 -26 -27 -53 -50 -60 -50 -16 0 69 124 98 143 51 34
130 117 130 137 0 12 8 17 18 11 10 -6 23 3 29 19 14 37 -48 41 -83 6 -19 -19
-24 -16 -24 11 0 21 -9 30 -22 22 -12 -8 -17 -37 -12 -65 6 -30 -2 -63 -20
-81 -27 -27 -29 -19 -20 69 14 133 30 167 113 243 39 35 63 64 54 65 -10 0 -6
14 9 32 14 18 28 44 30 58 2 14 10 46 17 73 11 36 9 40 -7 17 -31 -44 -26 -13
8 53 35 67 39 115 8 96 -14 -9 -14 2 2 31 14 26 19 76 13 117 -8 50 -2 82 21
107 18 20 24 36 14 36 -21 1 35 39 57 40 24 0 17 -70 -10 -97 -20 -20 -18 -23
10 -12 39 15 47 -11 13 -45 -17 -17 -12 -31 15 -55 26 -22 38 -56 36 -107 -2
-41 4 -79 13 -85 32 -21 35 -704 3 -767 -22 -44 -23 -61 -5 -72 18 -11 18 -26
3 -54 -13 -25 -14 -47 -3 -58 12 -12 7 -42 -12 -78 -17 -33 -23 -62 -13 -65 9
-3 14 -35 11 -70 -4 -36 -11 -101 -15 -145 -15 -147 -67 -328 -109 -383 -24
-29 -38 -68 -32 -87 6 -19 -7 -49 -29 -69 -36 -32 -36 -38 -8 -67 35 -35 31
-40 -94 -110 -36 -19 -59 -41 -51 -48 7 -7 23 -3 36 10 13 13 38 24 55 24 25
-1 26 -4 3 -18 -15 -10 -21 -28 -13 -40 7 -12 -1 -28 -18 -34 -17 -7 -31 -20
-31 -30 0 -9 14 -12 30 -5 22 8 27 2 18 -21 -7 -17 -22 -32 -33 -32 -12 0 0
-18 25 -40 46 -40 36 -49 -43 -41 -17 1 -37 -11 -44 -27 -7 -20 -2 -26 16 -20
36 14 53 -17 28 -53 -14 -21 -23 -22 -30 -5 -12 30 -151 -15 -163 -53 -7 -20
1 -20 36 -1 36 19 43 19 36 -3 -20 -60 -305 -127 -298 -70 6 40 -2 48 -38 39
-22 -6 -40 -18 -40 -27 0 -25 -119 -45 -146 -23 -13 10 -49 17 -80 16 l-56 -3
46 34 c32 24 53 28 70 14 27 -23 66 -7 66 27 0 13 -11 12 -30 -4 -24 -20 -32
-19 -41 6 -10 26 -27 22 -106 -24 -51 -30 -104 -52 -118 -47 -14 5 -25 -7 -25
-25 0 -23 -11 -29 -38 -21 -23 8 -42 1 -48 -16 -8 -20 0 -26 27 -18 60 15 108
-10 81 -42 -12 -15 -16 -33 -8 -40 7 -7 0 -13 -16 -14 -20 0 -18 -6 7 -21 19
-11 44 -15 55 -8 11 7 20 3 20 -9 0 -11 -11 -21 -24 -21 -15 0 -17 -7 -5 -19
27 -27 181 29 173 63 -3 14 -19 36 -35 48 -44 34 -35 48 31 48 60 0 82 -29 35
-46 -14 -5 -18 -16 -9 -26 9 -9 22 -8 30 3 22 31 124 28 124 -4 0 -33 24 -35
54 -5 24 24 66 9 66 -23 0 -10 -16 -12 -35 -5 -19 7 -29 6 -23 -1 7 -8 33 -18
58 -23 61 -12 64 -17 49 -79 -9 -34 -24 -50 -41 -43 -16 6 -28 -2 -28 -19 0
-16 -9 -29 -20 -29 -18 0 -23 23 -19 75 1 8 15 12 30 9 42 -8 36 31 -6 44 -90
28 -293 4 -376 -44 -34 -20 -35 -23 -4 -23 19 -1 35 -10 35 -21 0 -11 10 -20
21 -20 12 0 17 8 11 17 -6 10 27 15 73 11 46 -3 96 4 110 16 20 17 35 14 60
-11 31 -31 30 -33 -16 -33 -116 -1 -85 -31 34 -33 141 -3 236 -47 101 -47 -74
0 -103 -31 -40 -44 21 -4 1 -21 -55 -48 -148 -70 -221 -89 -257 -66 -25 15
-21 17 18 8 l50 -13 -50 42 c-43 35 -46 44 -20 63 25 18 24 20 -7 10 -20 -7
-41 -12 -47 -12 -6 0 0 -13 14 -30 21 -25 17 -30 -28 -30 -110 0 -41 -73 73
-77 42 -1 93 -11 114 -22 21 -12 68 -21 105 -21 l66 0 2 -110 c1 -122 3 -120
-51 -86 -29 18 -50 18 -90 0 -84 -38 -63 -71 37 -57 101 14 148 -33 67 -67
l-45 -18 44 -13 c50 -15 79 -69 37 -69 -16 0 -42 14 -58 30 -17 17 -38 30 -48
30 -10 0 -37 18 -61 41 -50 46 -60 139 -15 139 49 0 55 37 12 74 -23 19 -41
46 -41 60 0 30 -87 55 -130 39 -52 -20 -150 27 -100 48 37 15 36 16 -8 18 -27
0 -64 14 -82 31 -27 24 -44 25 -96 5 -49 -18 -69 -18 -88 1 -19 19 -7 24 55
26 43 0 68 6 54 11 -43 18 -27 44 20 34 43 -10 43 -9 8 20 -20 17 -31 40 -24
52 17 27 -11 27 -81 0 -51 -19 -52 -22 -16 -48 35 -25 31 -28 -42 -41 -106
-18 -130 -26 -76 -28 70 -3 76 -42 6 -42 -34 0 -58 -8 -52 -17 6 -10 44 -14
84 -10 66 8 70 6 40 -24 -41 -41 -40 -48 10 -109 23 -27 36 -39 29 -25 -8 14
-1 25 14 25 15 0 38 -11 52 -25 20 -20 23 -18 12 10 -7 19 -29 35 -49 35 -19
0 -46 14 -60 30 -22 26 -20 29 10 17 28 -11 33 -7 20 15 -9 15 3 11 27 -10 23
-21 43 -31 43 -23 0 9 14 5 30 -9 20 -17 30 -18 30 -3 0 12 -27 36 -60 53 -75
39 -76 49 -5 40 30 -4 61 -8 69 -9 8 0 10 -14 3 -31 -15 -39 51 -65 74 -28 14
22 26 18 63 -17 32 -29 62 -40 91 -32 50 13 85 -41 49 -77 -25 -25 -12 -66 49
-148 26 -34 57 -89 68 -124 13 -37 32 -58 48 -52 15 6 44 -20 68 -61 23 -39
55 -71 72 -71 17 0 31 -13 31 -29 0 -19 -12 -26 -35 -18 -102 32 -145 54 -145
73 0 11 -6 15 -13 8 -7 -7 -3 -25 9 -39 12 -15 15 -38 6 -52 -16 -25 9 -124
45 -179 23 -37 0 -55 -34 -27 -30 25 -86 -17 -59 -44 7 -8 -8 -11 -34 -8 -37
4 -57 -13 -93 -75 l-46 -80 13 80 c7 44 25 92 39 106 32 32 36 84 6 84 -12 0
-15 10 -8 22 10 16 18 15 29 -2 28 -46 60 1 60 87 0 47 -13 103 -29 124 -17
22 -30 62 -30 89 l0 50 41 -50 41 -50 -15 50 c-17 61 -63 99 -123 99 -25 1
-45 11 -45 22 0 12 -11 15 -25 6 -13 -8 -38 -16 -55 -18 -16 -1 -61 -8 -100
-16 -38 -7 -60 -8 -49 -2 12 5 18 37 13 69 -5 36 0 60 14 60 12 0 22 8 22 18
0 22 -124 -20 -172 -59 -21 -17 -30 -19 -21 -4 9 14 6 25 -5 25 -33 0 -84 -91
-71 -126 7 -17 -4 -65 -23 -105 l-35 -75 73 -67 c85 -78 144 -91 74 -17 -46
49 -46 50 -6 50 61 0 328 -343 330 -424 1 -33 14 -64 29 -70 15 -6 27 -28 27
-49 0 -21 12 -67 27 -103 35 -84 19 -139 -21 -72 -28 47 -28 47 -17 -18 9 -55
4 -66 -24 -63 -61 6 -71 0 -45 -31 14 -16 16 -30 6 -30 -23 0 -27 -62 -5 -90
19 -24 -20 -210 -44 -210 -9 0 -11 27 -4 60 7 33 2 72 -10 87 -13 15 -16 34
-8 43 8 9 3 10 -11 2 -17 -10 -21 -37 -12 -84 8 -44 5 -68 -10 -68 -12 0 -22
18 -22 40 0 43 -29 54 -51 19 -7 -12 2 -38 20 -58 26 -29 28 -39 7 -47 -14 -6
-17 -12 -5 -12 11 -1 17 -36 13 -80 -5 -50 7 -112 35 -173 30 -70 36 -102 20
-118 -16 -15 -20 -13 -15 8 3 16 -7 30 -24 30 -17 1 -33 23 -36 51 -10 85 -24
113 -42 83 -12 -19 -22 -17 -44 10 -25 30 -24 33 6 22 46 -18 58 6 37 77 -13
42 -18 47 -20 18 -2 -38 -5 -37 -43 8 -30 37 -34 52 -14 64 13 9 21 19 15 22
-82 53 -104 59 -90 23 31 -80 32 -153 1 -127 -16 14 -26 31 -21 39 5 8 1 41
-8 73 -16 53 -17 50 -16 -31 2 -77 13 -100 88 -175 92 -92 107 -132 78 -207
-8 -19 8 -54 38 -86 50 -54 70 -107 31 -83 -50 31 -17 -246 34 -285 29 -22 30
-25 2 -25 -48 0 -68 38 -95 178 -24 129 -68 207 -87 157 -6 -17 -19 -13 -40
15 -29 38 -30 37 -20 -15 6 -30 23 -55 39 -55 30 0 28 -270 -2 -319 -30 -47
-56 -19 -45 49 12 76 -18 119 -32 45 -5 -25 -10 -2 -11 50 -3 97 -34 131 -48
50 -4 -30 -15 -8 -32 65 -28 126 -62 196 -63 130 -1 -33 -4 -35 -20 -10 -17
26 -19 25 -20 -5 0 -19 -13 -35 -28 -35 -18 0 -25 -14 -19 -37 10 -35 -55 -95
-117 -108 -14 -3 -45 -27 -69 -53 -29 -31 -55 -43 -78 -35 -21 9 -44 1 -60
-21 -18 -25 -47 -33 -97 -29 -72 6 -106 -40 -47 -64 19 -7 18 -10 -2 -11 -15
-1 -32 16 -37 39 -9 34 -26 40 -104 38 -50 -1 -109 1 -130 4 -53 10 -63 -35
-11 -49 23 -6 75 -7 115 -2 l74 8 -60 -29 c-33 -16 -78 -24 -100 -17 -57 16
36 -57 145 -114 47 -24 105 -65 130 -92 25 -26 60 -47 78 -48 17 0 42 -12 55
-27 99 -120 197 87 151 319 -12 56 -4 69 69 120 44 32 81 70 82 84 0 16 14 22
36 15 27 -8 36 1 40 42 9 115 61 30 75 -123 4 -44 3 -64 -3 -44 -9 29 -17 31
-39 13 -23 -19 -33 -14 -49 24 -16 40 -19 33 -15 -41 3 -59 -4 -91 -22 -97
-20 -7 -24 3 -14 38 11 36 9 40 -7 17 -27 -38 -28 -95 -2 -103 10 -4 23 -90
28 -192 5 -109 1 -181 -10 -174 -10 6 -18 -20 -18 -59 0 -38 -9 -75 -20 -82
-11 -7 -20 -30 -20 -51 0 -24 -10 -34 -27 -27 -19 7 -31 -14 -41 -71 -12 -79
-52 -115 -52 -48 0 19 -5 28 -12 22 -6 -7 -6 -40 2 -75 14 -66 90 -38 90 33 0
15 9 27 20 27 11 0 20 14 20 30 0 17 9 30 20 30 11 0 20 -18 20 -40 0 -22 9
-40 20 -40 11 0 20 -25 19 -55 l0 -55 -28 50 c-28 50 -28 50 -53 -44 -14 -51
-33 -89 -42 -84 -53 34 11 -171 67 -212 52 -38 90 -196 76 -310 -9 -66 -16
-140 -17 -165 -1 -25 -12 -45 -23 -45 -12 0 -15 11 -6 25 10 17 4 17 -19 -2
-31 -25 -33 -17 -28 100 3 75 -5 147 -20 177 -14 28 -26 68 -27 90 0 22 -14
67 -29 100 l-29 60 12 -80 c7 -44 19 -98 26 -120 37 -106 7 -409 -36 -382 -9
6 -18 61 -21 122 -5 144 -39 240 -41 120 -2 -103 -40 -54 -41 52 0 115 -25
263 -39 239 -13 -21 5 -245 27 -341 18 -74 -97 -208 -130 -153 -24 40 -57 15
-58 -42 0 -49 843 -34 885 15 28 32 29 40 6 40 -16 0 -34 -8 -40 -18 -6 -10
-53 -16 -106 -15 l-95 3 -4 86 c-3 61 5 90 26 98 22 8 27 29 19 74 -12 62 11
19 90 -174 21 -49 76 -68 65 -22 -20 76 -65 175 -85 188 -18 11 -19 19 -3 29
12 7 22 2 22 -13 1 -19 5 -19 19 3 23 36 9 63 -26 49 -48 -18 -80 45 -56 112
11 33 13 60 4 60 -20 0 -46 -78 -42 -125 2 -19 -6 -35 -17 -35 -11 0 -26 -31
-33 -70 -9 -48 -24 -70 -48 -70 -34 0 -38 16 -49 215 -1 25 -8 45 -16 45 -26
0 -97 186 -85 224 7 20 20 31 30 25 11 -6 19 -3 19 8 0 11 -11 25 -25 31 -14
6 -4 6 21 0 33 -8 45 -4 40 16 -3 15 14 52 38 82 l43 56 30 -66 c38 -82 47
-139 26 -171 -10 -16 -4 -25 16 -25 35 0 39 -17 12 -60 -15 -23 -25 -15 -49
40 -28 65 -30 66 -31 19 -1 -28 11 -68 27 -89 15 -21 24 -52 19 -69 -4 -17 10
5 32 49 22 44 40 92 40 106 1 15 11 20 24 12 15 -9 18 -5 9 9 -8 13 -23 18
-33 12 -11 -6 -18 5 -16 25 7 82 -4 126 -33 126 -24 0 -30 19 -25 80 3 44 10
80 17 80 25 0 3 81 -33 123 -22 24 -26 36 -11 27 22 -12 26 -8 16 17 -11 29 4
41 47 37 6 -1 12 17 14 40 4 61 45 96 45 40 0 -50 30 -59 47 -14 25 66 43 23
47 -113 3 -79 13 -152 24 -163 10 -10 14 -33 7 -50 -8 -21 -4 -26 14 -15 25
16 25 34 -10 281 -9 60 -6 72 10 50 18 -25 24 -26 39 -2 14 21 21 17 32 -19
22 -68 14 -244 -11 -260 -26 -16 -9 -237 21 -267 11 -11 20 -12 20 -2 0 10 11
2 25 -17 24 -33 28 -32 71 7 24 23 53 37 64 30 11 -7 20 2 20 20 0 18 -9 27
-20 20 -12 -7 -19 -6 -16 4 2 9 -8 39 -24 66 -15 28 -26 66 -23 85 3 19 -5 35
-18 35 -17 0 -18 7 -3 26 14 16 15 36 3 55 -28 45 -22 67 11 39 17 -14 30 -16
30 -5 0 12 -13 26 -30 32 -16 6 -24 24 -19 40 13 33 -93 144 -156 165 -25 7
-55 27 -67 44 -16 21 -26 24 -36 7 -8 -13 -23 -23 -34 -23 -11 0 -15 8 -9 18
6 10 -3 50 -19 89 -36 87 -38 109 -6 77 44 -44 55 -25 43 68 -14 101 13 140
75 107 23 -13 41 -9 58 11 20 24 19 30 -8 30 -33 0 -75 76 -58 105 17 30 47
-9 36 -47 -9 -28 -5 -35 17 -26 18 7 34 -5 43 -31 7 -23 23 -36 35 -28 12 8
15 4 7 -10 -9 -15 3 -23 34 -23 54 0 56 77 2 122 -15 13 -28 39 -28 59 0 20
-11 40 -25 46 -19 7 -19 10 0 11 17 2 19 16 5 51 -15 40 -11 51 18 60 53 17
91 109 52 124 -41 16 -38 43 5 40 42 -4 39 83 -5 172 -15 31 -19 50 -9 44 11
-6 19 25 19 71 0 46 8 77 19 71 10 -6 24 -3 31 9 7 11 1 20 -14 20 -17 1 -19
6 -5 15 12 8 28 32 36 53 23 62 32 28 36 -135 3 -117 12 -160 36 -174 22 -13
24 -23 8 -34 -77 -52 75 -354 203 -403 11 -4 46 -26 77 -48 55 -38 57 -39 46
-2 -6 21 -17 62 -24 92 -7 29 -26 58 -42 64 -16 7 -24 20 -18 31 12 18 -80 9
-114 -12 -9 -6 -28 17 -40 51 -13 34 -34 62 -46 62 -12 0 -21 20 -19 45 4 57
32 54 67 -7 24 -45 25 -43 15 32 -7 53 -28 94 -61 121 -64 51 -65 69 -1 57 62
-11 67 23 6 39 -24 6 -39 17 -32 24 7 7 1 47 -14 89 -15 42 -22 81 -17 86 5 6
-5 39 -23 74 -19 37 -23 58 -10 50 17 -11 20 -3 11 27 -8 26 -5 43 8 43 11 0
22 -20 24 -45 3 -51 6 -65 23 -135 6 -27 17 -84 24 -125 20 -127 42 -83 33 67
-5 92 0 148 15 157 15 9 11 26 -14 52 -87 94 -76 147 47 219 94 55 126 132
102 249 -8 39 -1 66 19 83 42 35 99 150 128 258 13 50 50 145 82 213 32 67 58
140 58 162 0 21 18 55 39 74 40 36 39 36 -7 73 -56 44 -140 178 -111 178 10 0
19 47 19 105 0 58 15 132 32 165 49 92 51 141 11 191 -45 56 -34 113 24 131
24 7 61 31 83 52 22 22 86 74 142 117 92 70 227 279 239 369 2 11 8 34 14 50
27 76 57 197 66 270 16 120 23 152 59 250 108 291 158 1252 86 1630 -19 99
-53 302 -76 450 -68 443 -110 542 -299 705 -52 45 -66 44 -96 -5z m-865 -2900
c0 -11 -10 -20 -22 -20 -14 0 -19 -27 -14 -68 5 -45 0 -65 -16 -59 -12 5 -28
-5 -35 -23 -7 -18 -22 -27 -34 -20 -11 8 -34 2 -50 -11 -17 -14 -36 -18 -44
-11 -17 18 34 51 78 52 20 0 37 24 45 63 17 87 92 166 92 97z m-6 -249 c-16
-16 -35 -24 -42 -17 -6 7 -12 -3 -12 -23 0 -23 10 -31 29 -24 19 7 25 1 18
-18 -6 -16 -33 -29 -59 -29 -40 0 -45 6 -30 45 9 25 12 56 8 69 -5 13 17 37
48 53 65 35 93 -3 40 -56z m136 -551 c7 -12 19 -17 27 -12 8 5 27 2 42 -7 18
-12 6 -21 -41 -31 -42 -10 -69 -7 -73 6 -4 12 -21 17 -36 11 -16 -6 -29 -2
-29 9 0 38 89 57 110 24z m290 -40 c43 23 66 0 48 -48 -15 -40 -23 -40 -62 -1
-17 17 -46 25 -68 18 -21 -6 -38 -3 -38 8 0 24 67 41 77 19 3 -9 23 -7 43 4z
m171 -1102 c15 -24 -43 -93 -62 -73 -17 16 9 95 31 95 10 0 24 -10 31 -22z
m-291 -772 l0 -75 -43 43 c-37 37 -39 49 -18 75 42 50 61 36 61 -43z m-757
-1656 c36 -1 103 -51 88 -66 -6 -6 -1 -22 11 -36 16 -20 12 -25 -18 -23 -24 2
-36 14 -30 29 6 14 1 26 -11 26 -39 0 -47 -41 -17 -87 27 -41 26 -50 -8 -94
-20 -27 -37 -60 -38 -74 0 -14 -8 -25 -18 -25 -25 0 -42 78 -19 92 11 7 15 25
8 41 -8 22 -1 26 29 17 23 -7 40 -4 40 9 0 11 -9 21 -20 21 -11 0 -21 25 -22
55 l-3 55 -13 -60 c-13 -59 -14 -59 -38 -16 -29 53 -32 126 -4 126 11 0 19 7
18 15 -9 56 7 92 20 45 8 -27 28 -50 45 -50z m-33 -471 c6 -18 1 -59 -10 -90
-33 -85 -87 -4 -60 90 15 52 13 63 -10 54 -18 -7 -26 2 -24 28 3 45 84 -17
104 -82z m-310 -938 c0 -22 -18 -49 -40 -61 -35 -19 -40 -15 -40 33 0 52 1 53
29 16 29 -38 30 -38 30 6 1 25 6 45 11 45 6 0 10 -18 10 -39z"/>
<path d="M1953 10981 c-55 -56 -56 -60 -42 -219 9 -103 7 -162 -6 -162 -11 0
-15 -23 -10 -50 8 -42 4 -48 -25 -37 -28 11 -32 5 -21 -30 10 -31 5 -43 -16
-43 -44 0 -126 -196 -143 -341 -8 -69 -27 -155 -42 -191 -110 -262 -135 -1562
-36 -1800 16 -37 28 -92 28 -123 0 -32 11 -68 24 -81 19 -19 19 -24 0 -24 -84
0 -8 -292 104 -398 40 -37 72 -75 72 -85 0 -9 12 -17 27 -17 15 0 48 -18 73
-40 62 -54 168 -55 151 -2 -9 26 0 40 29 48 25 6 45 33 52 71 7 34 27 65 45
70 29 7 28 9 -2 11 -19 1 -35 13 -36 27 0 15 -11 11 -27 -10 -15 -20 -39 -33
-54 -29 -16 4 -21 4 -13 -1 35 -20 10 -35 -65 -40 -62 -5 -77 0 -68 23 7 17
-5 33 -30 41 -23 8 -39 24 -37 36 3 12 -17 23 -43 24 -64 1 -81 51 -19 52 41
0 36 7 -33 50 -78 48 -67 70 14 27 31 -17 45 -16 56 2 24 39 -23 135 -79 161
-33 16 -42 28 -24 34 14 5 37 -1 49 -13 67 -67 101 15 36 87 -60 65 -157 318
-140 362 8 22 16 28 17 15 2 -34 61 -8 61 27 0 19 -14 24 -46 16 -44 -11 -114
92 -114 168 0 41 96 26 110 -17 7 -22 24 -40 38 -40 14 0 36 -20 48 -45 21
-42 22 -41 15 15 -4 33 -8 76 -9 95 -1 19 -12 35 -23 35 -12 0 -16 -9 -9 -20
7 -11 0 -20 -16 -20 -32 0 -99 186 -71 197 10 4 8 19 -4 35 -14 16 -17 43 -8
63 8 19 13 44 10 55 -4 11 -8 90 -9 175 -3 144 9 190 36 130 11 -26 -4 67 -21
130 -5 19 0 35 12 35 11 0 21 -11 21 -23 0 -13 6 -18 13 -10 8 7 2 36 -13 63
-20 37 -21 57 -5 73 13 13 16 39 6 65 -36 98 -42 152 -16 152 18 0 24 37 23
129 -1 92 6 132 26 140 18 7 23 28 14 66 l-12 55 35 -47 c23 -32 27 -52 13
-61 -15 -9 -6 -41 26 -98 26 -46 39 -84 29 -84 -28 0 -23 -54 10 -118 34 -65
18 -99 -21 -47 -22 30 -25 26 -17 -35 15 -127 33 -190 64 -225 35 -40 7 -48
-32 -10 -20 20 -23 17 -12 -15 35 -105 123 -258 168 -293 28 -22 89 -76 136
-120 89 -83 170 -102 89 -21 -24 24 -44 49 -44 55 0 6 -24 32 -54 58 -57 48
-42 111 26 111 31 0 33 12 8 70 -15 34 -17 35 -19 5 -1 -38 -41 -50 -41 -12 0
12 -21 42 -47 66 -49 45 -62 112 -25 135 13 9 6 30 -21 60 -34 36 -39 56 -24
95 10 26 14 59 9 73 -13 35 10 51 40 27 22 -19 -14 100 -67 221 -7 17 -13 39
-14 50 -1 11 -10 32 -19 47 -14 22 -9 23 27 3 47 -24 45 39 -1 89 -10 10 -18
40 -18 66 0 25 -14 67 -30 92 -40 61 -20 186 23 150 41 -34 132 -175 175 -272
21 -47 46 -85 55 -85 9 0 16 -7 15 -15 -8 -50 3 -72 26 -49 18 18 15 32 -10
60 -41 45 -52 127 -19 138 15 6 21 -2 14 -19 -6 -15 8 -44 30 -64 23 -21 41
-57 41 -81 0 -55 68 -195 86 -177 8 7 14 3 14 -11 0 -13 18 -60 39 -105 90
-186 106 -289 90 -577 -17 -304 -17 -426 1 -495 7 -30 4 -44 -8 -36 -11 7 -8
-11 6 -39 15 -28 25 -71 24 -95 -2 -25 6 -52 17 -60 14 -10 10 -22 -9 -35 -17
-11 -20 -20 -7 -20 41 0 74 -179 38 -205 -13 -9 -9 -15 9 -15 17 0 42 18 55
40 17 26 18 40 4 40 -26 0 -4 83 29 105 14 9 5 20 -24 28 -43 11 -44 14 -12
50 38 41 68 48 68 16 0 -12 -8 -16 -19 -10 -10 6 -24 2 -31 -9 -7 -12 14 -26
50 -33 44 -9 56 -19 41 -34 -11 -11 -21 -27 -21 -35 0 -22 79 -36 91 -16 7 10
21 13 33 5 38 -23 -70 -67 -134 -54 -33 6 -54 5 -46 -3 8 -8 -1 -43 -19 -78
-18 -34 -34 -69 -34 -78 -1 -8 -14 -24 -31 -34 -25 -16 -24 -19 6 -20 20 0 31
-9 24 -20 -15 -25 10 -26 48 -2 16 11 23 35 17 60 -6 23 -3 47 7 53 22 14 64
-88 50 -122 -6 -16 6 -21 34 -14 35 8 39 5 21 -15 -18 -18 -18 -38 -2 -72 24
-54 61 -67 41 -15 -9 24 -5 29 13 17 18 -10 23 -7 16 12 -5 15 -21 26 -33 23
-18 -4 -18 5 -2 34 15 29 14 51 -4 80 -20 32 -20 45 0 65 19 19 24 15 24 -17
0 -23 18 -64 39 -92 22 -27 35 -54 30 -59 -5 -5 5 -9 21 -9 17 0 30 7 30 16 0
10 15 17 32 17 28 0 29 5 6 33 -25 29 -22 31 22 19 l50 -14 -50 44 c-41 36
-43 42 -10 29 101 -39 117 -39 101 1 -8 21 -28 81 -44 133 -16 52 -36 95 -46
95 -10 0 -24 27 -31 60 -7 33 -24 67 -38 75 -30 18 -66 109 -83 208 -8 49 -26
77 -51 83 -26 7 -38 28 -39 67 0 31 -13 80 -29 107 -16 28 -29 75 -29 105 -1
30 -9 55 -20 55 -32 0 -65 198 -64 385 0 20 -8 31 -18 24 -11 -6 -19 5 -19 25
-1 42 -68 248 -109 336 -15 33 -47 132 -70 220 -23 88 -49 163 -58 166 -10 3
-13 28 -8 55 5 27 1 49 -10 49 -18 0 -47 140 -47 229 0 21 -13 48 -28 60 -18
13 -30 65 -33 136 -4 125 -38 195 -95 195 -20 0 -52 18 -72 40 -48 53 -69 50
-137 -19z m869 -2808 c-48 -48 -75 -34 -43 25 13 25 33 36 53 28 27 -10 26
-17 -10 -53z"/>
<path d="M5637 9966 c-15 -20 -40 -39 -57 -42 -36 -8 -124 -87 -111 -100 13
-12 136 67 181 115 20 23 31 46 25 52 -6 7 -23 -5 -38 -25z"/>
<path d="M2217 9779 c24 -23 39 -50 32 -60 -6 -11 -2 -19 10 -19 29 0 27 66
-3 96 -13 13 -37 24 -54 24 -21 0 -18 -11 15 -41z"/>
<path d="M2040 9601 c0 -22 102 -121 125 -121 26 0 18 11 -55 77 -38 35 -70
55 -70 44z"/>
<path d="M2121 9359 c32 -45 49 -55 69 -39 19 15 28 11 36 -20 16 -62 44 -47
46 25 1 36 -2 53 -7 39 -7 -21 -19 -19 -56 5 -44 29 -47 29 -37 -4 9 -27 2
-24 -29 10 -58 66 -73 55 -22 -16z"/>
<path d="M5870 9246 c-75 -19 -135 -126 -71 -126 11 0 14 15 7 33 -10 25 -5
31 18 22 33 -13 116 34 116 66 0 20 -6 20 -70 5z"/>
<path d="M2210 9140 c-14 -23 35 -80 90 -106 17 -7 50 -28 75 -46 25 -18 45
-25 45 -15 0 9 -25 34 -57 55 -31 21 -64 56 -74 78 -23 49 -60 65 -79 34z"/>
<path d="M5898 9150 c-2 -11 -1 -29 1 -40 3 -11 -2 -14 -10 -6 -21 22 -89 -21
-89 -56 0 -16 -31 -62 -70 -102 -38 -40 -70 -66 -70 -58 0 29 -54 -40 -88
-112 -22 -44 -54 -77 -83 -85 -27 -6 -49 -21 -49 -33 0 -11 -20 -16 -45 -10
-25 7 -34 6 -20 0 44 -20 27 -48 -30 -48 -75 -1 -121 -30 -74 -48 19 -7 44 -5
57 5 12 10 50 24 85 32 34 7 92 35 128 61 36 27 72 44 82 38 23 -14 -27 -88
-59 -88 -35 0 -21 -45 17 -55 24 -7 23 -4 -1 13 -22 15 -23 21 -4 22 14 0 54
45 88 100 34 55 70 100 79 100 9 0 17 14 17 31 0 18 14 28 35 25 19 -3 34 5
35 17 0 13 7 30 15 39 8 8 15 35 15 61 0 32 9 42 30 34 20 -7 30 1 31 26 0 40
54 121 72 110 5 -3 15 -1 21 5 6 6 -10 7 -35 2 -26 -5 -54 2 -63 15 -8 14 -17
16 -18 5z"/>
<path d="M1810 9040 c7 -11 3 -20 -8 -20 -34 0 21 -103 93 -176 36 -36 77 -94
92 -130 15 -35 51 -86 80 -114 29 -27 52 -65 53 -84 0 -18 16 -49 35 -68 24
-24 27 -37 11 -43 -18 -6 -15 -26 9 -77 34 -72 49 -75 190 -35 49 14 24 47
-35 47 -78 0 -164 39 -130 60 16 10 43 9 63 -1 61 -33 126 -25 90 11 -17 17
-40 30 -52 30 -11 0 -21 10 -21 21 0 13 18 16 45 9 33 -10 28 -3 -17 27 -35
21 -70 65 -78 96 l-16 57 -15 -50 c-13 -45 -15 -45 -17 -7 -1 23 -15 53 -32
67 -16 14 -30 40 -30 59 0 18 -13 51 -29 72 -17 22 -30 55 -30 74 -1 19 -13
35 -28 35 -16 0 -49 31 -75 70 -27 38 -61 74 -76 80 -23 9 -23 5 -2 -20 18
-21 18 -30 2 -30 -13 0 -28 14 -35 30 -6 17 -20 30 -30 30 -11 0 -14 -9 -7
-20z"/>
<path d="M2040 9023 c0 -10 29 -79 64 -155 35 -76 62 -149 59 -161 -2 -13 7
-31 20 -39 16 -10 20 -4 11 19 -7 18 -5 33 4 33 24 0 25 176 1 190 -10 7 -19
3 -19 -9 0 -44 -34 -18 -78 59 -44 79 -62 97 -62 63z"/>
<path d="M5430 8908 c-33 -28 -73 -59 -90 -68 -16 -9 -24 -23 -16 -31 8 -7 40
6 73 29 33 23 67 42 76 42 10 0 29 18 42 40 37 59 -10 53 -85 -12z"/>
<path d="M2274 8847 c-7 -7 15 -48 49 -91 34 -43 67 -73 73 -67 6 6 -10 33
-35 60 -27 28 -41 62 -34 80 12 31 -27 44 -53 18z"/>
<path d="M5504 8825 c-14 -19 -19 -21 -11 -5 13 27 10 27 -23 0 -22 -17 -31
-20 -23 -5 9 14 7 25 -4 25 -29 0 -44 -56 -17 -68 13 -6 2 -7 -26 -2 -113 20
-150 19 -150 -3 0 -13 -25 -43 -55 -67 -53 -42 -74 -100 -36 -100 10 0 45 28
77 62 41 44 87 67 155 80 101 19 159 57 146 96 -4 13 -18 8 -33 -13z"/>
<path d="M2249 8713 c6 -87 58 -193 96 -193 11 0 10 12 -4 29 -14 16 -19 38
-12 49 10 17 -62 202 -80 202 -3 0 -3 -39 0 -87z"/>
<path d="M1900 8641 c0 -11 -15 -14 -33 -7 -36 14 -31 1 34 -94 20 -28 51
-105 70 -170 18 -66 41 -129 50 -140 8 -11 13 -67 10 -125 -4 -58 2 -111 11
-117 10 -5 18 -1 18 11 0 29 37 26 68 -4 29 -29 212 -22 212 7 0 10 -26 17
-58 14 -32 -2 -72 8 -90 22 -21 18 -32 19 -32 4 0 -12 -9 -22 -19 -22 -11 0
-18 38 -16 85 2 47 -4 103 -14 125 -14 33 -12 36 10 15 47 -43 68 -27 27 20
-46 52 -108 183 -108 226 0 16 -9 29 -20 29 -11 0 -20 11 -21 25 -1 50 -99
144 -99 96z"/>
<path d="M5758 8572 c-54 -55 -74 -79 -123 -156 -19 -30 -47 -50 -61 -45 -14
5 -43 -3 -65 -20 -36 -27 -33 -28 41 -19 75 10 78 9 41 -21 -21 -17 -55 -26
-74 -20 -19 6 -67 -10 -106 -35 -69 -45 -90 -76 -51 -76 11 0 20 9 20 20 0 11
15 20 33 20 19 0 52 16 74 35 22 19 33 24 25 10 -9 -16 -2 -25 21 -25 28 0 21
-14 -30 -60 -36 -33 -77 -60 -91 -60 -13 0 -66 -42 -117 -92 l-92 -93 -60 43
c-70 50 -86 53 -70 12 6 -16 23 -30 37 -30 14 0 36 -14 50 -30 32 -39 87 -23
185 54 41 32 83 53 95 46 11 -7 20 -3 20 9 0 11 14 21 30 21 17 0 30 9 30 20
0 25 75 102 93 95 7 -3 16 12 19 33 3 20 32 65 64 100 81 87 98 139 39 121
-41 -13 -40 -10 12 43 33 33 47 60 33 65 -15 5 -11 20 12 45 49 55 23 47 -34
-10z"/>
<path d="M5350 8508 c-55 -16 -111 -24 -125 -19 -13 5 -22 -1 -20 -15 3 -13
-11 -21 -30 -18 -21 3 -35 -7 -35 -25 0 -17 -9 -31 -20 -31 -11 0 -20 -10 -20
-21 0 -13 22 -10 55 8 93 50 200 93 229 93 16 0 46 13 67 29 46 35 32 35 -101
-1z"/>
<path d="M5109 8305 c-39 -27 -50 -85 -17 -85 36 0 75 -35 93 -85 8 -19 27
-35 43 -35 26 0 26 9 3 65 -16 38 -42 65 -62 65 -20 0 -38 17 -41 37 -4 29 5
35 43 28 26 -5 43 -2 37 8 -13 21 -70 22 -99 2z"/>
<path d="M2448 8260 c-12 -12 -68 -24 -126 -28 -114 -8 -133 -17 -112 -52 9
-15 34 -18 67 -9 29 8 78 13 109 11 31 -1 76 11 100 28 37 26 38 30 7 30 -19
0 -30 9 -23 20 16 26 4 26 -22 0z"/>
<path d="M3345 8198 c-98 -69 -115 -138 -35 -138 28 0 50 11 50 23 0 13 6 18
13 11 7 -7 1 -27 -12 -43 -21 -25 -20 -33 7 -43 17 -7 32 -21 32 -31 0 -11 -8
-14 -18 -8 -10 6 -23 -3 -30 -21 -17 -44 -18 -40 48 -108 33 -34 60 -54 60
-44 0 9 -22 36 -50 60 -51 45 -65 84 -30 84 11 0 20 -15 20 -33 0 -31 3 -31
37 1 46 41 62 5 52 -114 -8 -82 88 -210 135 -182 26 15 -39 -71 -71 -95 -10
-7 -14 -24 -9 -38 12 -36 131 121 137 181 9 92 -19 128 -65 86 -39 -35 -40
-34 -33 54 5 72 -1 91 -28 96 -19 4 -35 23 -35 43 0 20 -14 47 -30 61 -43 35
-32 140 14 140 20 0 36 -9 36 -20 0 -11 -10 -20 -22 -20 -13 0 -17 -14 -8 -35
7 -19 18 -57 23 -85 11 -59 29 -79 41 -45 5 14 21 25 36 25 15 0 31 -11 37
-25 5 -14 11 -5 11 20 2 36 14 45 57 44 50 0 52 -3 20 -27 -44 -33 -48 -96 -5
-79 17 6 30 25 30 41 0 65 66 175 81 134 9 -24 3 -44 -15 -55 -22 -12 -23 -23
-5 -44 28 -34 62 -19 47 20 -6 15 -2 33 10 40 11 7 15 27 8 44 -10 26 -4 25
31 -5 30 -26 35 -40 18 -51 -13 -8 -18 -21 -10 -29 8 -7 33 8 56 34 l41 48
-12 -50 c-9 -37 -8 -43 8 -21 11 17 26 24 34 16 7 -8 -10 -45 -38 -82 -29 -38
-55 -81 -58 -96 -3 -15 -15 -34 -26 -42 -13 -9 -11 -15 4 -15 13 0 29 9 36 20
7 11 22 20 33 20 12 0 -7 -32 -41 -71 -34 -39 -62 -80 -62 -92 0 -12 -14 -16
-31 -9 -37 14 -109 -20 -109 -51 0 -12 14 -16 30 -10 33 13 39 -21 11 -66 -14
-22 -24 -23 -46 -5 -40 33 -60 6 -23 -30 66 -67 248 78 286 227 14 53 33 113
44 132 10 19 18 53 18 75 0 77 55 181 89 168 37 -15 41 6 6 38 -32 31 -159 76
-144 52 6 -10 -3 -18 -20 -18 -17 0 -31 -13 -31 -30 0 -57 -59 -30 -78 35 -10
36 -19 49 -20 29 -1 -20 -11 -31 -23 -23 -12 7 -37 -2 -57 -19 -42 -39 -162
-8 -162 41 0 16 -9 24 -20 17 -11 -7 -20 2 -20 19 0 41 -33 40 -57 -3 -17 -31
-21 -31 -52 0 -43 44 -45 43 -146 -28z"/>
<path d="M1855 8187 c10 -20 33 -64 51 -97 115 -215 136 -290 64 -230 -25 20
-30 19 -30 -5 0 -40 136 -67 168 -33 16 18 16 20 -3 10 -38 -21 -72 6 -46 37
15 18 10 35 -19 61 -22 20 -40 54 -40 75 0 22 -22 56 -49 78 -26 21 -51 57
-55 81 -3 24 -18 47 -33 52 -19 6 -21 -1 -8 -29z"/>
<path d="M2273 8126 c-8 -8 6 -25 31 -39 43 -24 43 -26 6 -28 -40 -2 -40 -2 0
-17 41 -17 115 14 98 41 -5 8 7 24 27 35 28 17 16 21 -57 21 -50 1 -98 -5
-105 -13z"/>
<path d="M2408 7982 c-26 -28 -42 -54 -37 -59 13 -13 146 61 156 87 16 42 -74
21 -119 -28z"/>
<path d="M4207 8011 c7 -19 13 -37 13 -40 0 -3 23 -1 50 4 28 5 50 18 50 29 0
10 -9 13 -20 6 -10 -6 -39 -1 -63 11 -37 21 -41 19 -30 -10z"/>
<path d="M4172 7970 c37 -57 23 -120 -23 -102 -18 7 -26 3 -18 -9 6 -11 -7
-52 -30 -91 -23 -39 -37 -79 -31 -88 6 -10 -5 -27 -25 -38 -29 -17 -31 -26
-10 -60 15 -25 17 -45 4 -52 -22 -14 -85 -130 -70 -130 5 0 28 20 50 44 23 24
41 33 41 20 0 -32 -64 -104 -92 -104 -13 0 -35 -14 -49 -31 -14 -17 -37 -26
-52 -21 -14 6 -32 0 -39 -12 -9 -14 -5 -17 11 -7 17 11 22 2 18 -32 -4 -26
-20 -48 -37 -50 -16 -1 -41 -3 -55 -5 -14 -1 -25 -10 -25 -19 0 -28 96 -10
130 24 17 17 72 60 121 96 49 35 89 70 89 77 0 47 93 52 114 7 19 -41 18 -47
-10 -42 -20 3 -35 -11 -38 -35 -3 -22 0 -29 6 -15 8 19 19 17 42 -6 49 -49
117 -30 109 31 -9 65 -21 76 -44 39 -14 -23 -18 -19 -19 17 0 26 -9 41 -20 34
-29 -18 -24 8 7 40 21 21 33 22 50 5 17 -17 23 -17 23 1 0 13 12 24 28 24 36
0 55 74 25 105 -41 44 -32 115 11 88 20 -12 36 -33 36 -46 0 -12 14 -28 32
-35 49 -19 53 -15 19 19 -17 18 -31 43 -31 57 0 23 -94 80 -120 73 -5 -1 -12
-24 -14 -51 -6 -80 -85 -173 -119 -140 -15 15 -24 46 -21 68 9 58 34 77 34 25
0 -23 10 -43 21 -43 12 0 15 10 8 21 -7 12 0 37 16 55 17 19 30 48 30 64 0 17
7 55 15 85 9 36 7 55 -8 55 -12 0 -22 14 -22 30 0 17 -8 30 -19 30 -10 0 -24
18 -31 40 -7 22 -21 40 -32 40 -10 0 -4 -22 14 -50z"/>
<path d="M5549 7958 c-8 -12 -39 -17 -71 -11 -69 14 -86 -8 -55 -76 30 -64 49
-65 65 -1 8 31 27 50 50 50 20 0 48 14 62 30 20 24 19 30 -6 30 -18 0 -38 -10
-45 -22z"/>
<path d="M2191 7921 c-18 -28 24 -45 72 -30 33 10 36 17 15 31 -37 23 -73 23
-87 -1z"/>
<path d="M3772 7890 c-7 -27 -22 -50 -34 -50 -11 0 -15 -9 -8 -20 7 -11 5 -20
-4 -20 -9 0 -16 -31 -16 -70 0 -38 9 -70 20 -70 11 0 20 12 20 25 0 14 13 48
28 75 16 28 27 50 26 50 -2 0 2 20 9 45 6 25 20 45 31 45 10 0 13 9 6 20 -23
37 -66 20 -78 -30z"/>
<path d="M3105 7906 c19 -5 35 -17 35 -27 0 -11 12 -19 26 -19 15 0 62 -31
105 -70 78 -69 125 -92 97 -47 -10 17 -3 19 22 10 29 -11 26 -1 -15 51 -28 37
-64 64 -80 61 -16 -3 -41 8 -55 25 -15 18 -55 29 -97 28 -40 -2 -57 -7 -38
-12z"/>
<path d="M2655 7818 c-18 -37 -30 -70 -27 -73 14 -14 71 21 61 37 -7 10 12 8
40 -5 28 -13 57 -18 64 -11 17 18 -32 74 -64 74 -14 0 -29 10 -33 23 -5 13
-23 -7 -41 -45z"/>
<path d="M3030 7817 c-47 -32 -50 -37 -15 -27 66 19 55 -22 -15 -57 -57 -28
-60 -28 -60 11 0 29 -7 36 -25 22 -14 -10 -38 -18 -55 -17 -44 3 -78 -53 -67
-110 10 -51 167 -88 167 -39 0 11 10 18 22 15 11 -3 35 15 52 40 19 28 23 45
8 45 -12 0 -22 -9 -22 -20 0 -11 -15 -20 -32 -20 -49 0 0 52 72 77 47 16 56
15 47 -8 -7 -18 1 -29 21 -29 18 0 32 8 32 19 0 10 16 21 35 25 22 5 2 20 -55
40 -63 23 -76 33 -44 34 26 1 41 11 34 22 -17 27 -30 24 -100 -23z"/>
<path d="M2380 7811 c49 -29 49 -30 -40 -32 -73 -1 -82 -5 -46 -19 30 -12 74
-8 136 13 108 37 108 38 -10 54 -86 12 -88 11 -40 -16z"/>
<path d="M5240 7788 c0 -44 36 -69 97 -66 25 1 26 4 5 12 -21 9 -17 20 18 46
l47 35 -84 8 c-74 7 -83 4 -83 -35z"/>
<path d="M2120 7780 c0 -11 -16 -20 -35 -20 -34 0 58 -59 105 -68 11 -2 31
-10 45 -19 14 -9 25 -6 25 6 0 11 -9 21 -20 21 -11 0 -20 14 -20 30 0 17 -13
30 -30 30 -16 0 -30 9 -30 20 0 11 -9 20 -20 20 -11 0 -20 -9 -20 -20z"/>
<path d="M5447 7770 c-7 -18 8 -46 36 -68 46 -38 46 -39 9 -80 -49 -54 -21
-53 68 1 62 38 65 44 31 56 -35 13 -35 15 -3 27 47 19 21 54 -40 54 -29 0 -45
9 -38 20 7 11 -2 20 -19 20 -18 0 -37 -14 -44 -30z"/>
<path d="M4420 7760 c0 -10 18 -28 41 -40 22 -12 35 -31 28 -41 -6 -11 -22
-14 -35 -6 -16 9 -16 4 1 -14 38 -41 75 4 47 56 -23 43 -82 76 -82 45z"/>
<path d="M2525 7680 c-41 -66 -28 -87 23 -38 27 26 44 54 39 62 -16 26 -36 18
-62 -24z"/>
<path d="M3190 7652 c-33 -14 -58 -33 -56 -43 2 -11 -10 -16 -25 -13 -33 6
-39 -27 -10 -46 11 -6 36 7 55 29 37 44 86 55 86 20 0 -12 -9 -16 -20 -9 -29
18 -25 -81 5 -106 21 -17 30 -128 13 -164 -7 -17 -13 -49 -16 -90 -3 -38 -5
-38 -41 5 -21 25 -54 45 -74 44 -35 0 -35 -2 -2 -27 19 -14 30 -31 24 -37 -6
-5 20 -43 57 -83 62 -64 77 -107 18 -48 -13 13 -24 15 -23 5 0 -27 114 -149
139 -149 29 0 25 31 -9 59 -16 13 -25 35 -21 47 32 109 31 137 -6 125 -25 -8
-37 -2 -37 19 0 16 5 30 11 30 7 0 10 49 9 110 -2 60 5 110 15 110 10 0 18 10
18 21 0 12 -9 16 -20 9 -11 -7 -20 -3 -20 8 0 11 16 29 35 41 33 20 33 23 -2
50 -20 15 -32 36 -26 46 25 41 -17 61 -77 37z"/>
<path d="M4475 7571 c-31 -34 -50 -45 -43 -26 7 20 3 35 -10 35 -12 0 -22 -13
-22 -28 0 -16 -5 -43 -12 -60 -8 -21 4 -34 39 -43 28 -7 62 -26 75 -41 19 -23
29 -17 56 37 21 42 26 70 13 79 -14 9 -12 23 4 39 34 34 31 51 -10 61 -21 5
-57 -16 -90 -53z"/>
<path d="M3492 7588 c-7 -17 -11 -55 -10 -85 2 -34 6 -40 12 -18 5 19 16 35
25 35 9 0 15 22 14 50 -3 57 -23 65 -41 18z"/>
<path d="M4641 7522 c-49 -70 -50 -77 -9 -86 75 -14 -126 -113 -211 -103 -49
5 -81 0 -81 -12 0 -11 20 -19 45 -18 25 1 69 -4 98 -12 31 -8 58 -6 65 7 8 11
26 15 42 9 17 -6 35 3 42 21 7 18 20 32 30 32 33 0 18 -40 -30 -82 -27 -24
-44 -55 -38 -70 5 -16 0 -28 -12 -28 -12 0 -22 14 -22 30 0 17 -9 30 -20 30
-11 0 -20 -9 -20 -19 0 -11 -13 -15 -29 -9 -35 14 -31 -80 6 -117 23 -23 26
-20 31 30 1 14 11 25 22 25 11 0 32 8 46 17 15 9 33 10 40 2 8 -8 3 -18 -11
-23 -14 -5 -25 -23 -25 -40 0 -20 11 -26 33 -17 19 7 42 1 52 -13 14 -19 16
-16 7 9 -11 37 51 33 132 -8 43 -22 61 -22 47 1 -6 11 4 23 24 28 19 5 6 10
-29 12 -53 2 -62 9 -52 37 12 32 9 32 -29 -2 -24 -20 -52 -31 -64 -24 -33 21
-25 51 14 52 27 0 23 7 -15 28 l-50 28 54 24 c53 24 98 86 50 68 -33 -12 -92
31 -60 44 13 5 19 22 13 38 -7 18 8 36 39 48 38 14 48 29 40 59 -10 41 -11 41
-45 -2 -30 -37 -36 -38 -47 -9 -7 18 -4 33 7 33 10 0 19 9 19 20 0 41 -59 18
-99 -38z"/>
<path d="M2548 7532 c-8 -20 -33 -25 -91 -17 -54 7 -86 2 -97 -14 -8 -14 -43
-27 -78 -29 -34 -1 -60 -12 -57 -22 3 -11 19 -17 35 -14 82 15 320 16 320 1 0
-9 -10 -17 -21 -17 -12 0 -15 -11 -7 -23 10 -16 4 -20 -17 -12 -18 7 -36 2
-41 -11 -7 -18 -15 -18 -35 1 -34 31 -167 34 -148 3 7 -12 30 -17 51 -12 21 6
38 3 38 -7 0 -22 61 -40 165 -49 73 -7 80 -4 50 18 -50 38 -25 49 81 38 52 -5
88 -3 80 5 -22 22 72 87 121 84 23 -2 42 -13 41 -24 -7 -61 4 -75 52 -66 28 5
50 2 50 -8 0 -9 11 -17 25 -17 14 0 50 -13 80 -29 92 -48 71 0 -35 81 -39 29
-38 30 10 17 l50 -13 -49 36 c-34 25 -51 28 -56 12 -5 -13 -28 -23 -52 -22
-33 2 -35 5 -8 12 50 13 43 46 -10 48 -110 5 -125 9 -120 34 4 19 -4 21 -30 7
-72 -39 -245 -60 -245 -30 0 15 11 27 23 27 13 0 18 6 11 13 -7 7 -28 0 -47
-15 -30 -25 -33 -24 -21 7 7 19 8 35 3 35 -6 0 -15 -13 -21 -28z"/>
<path d="M3329 7475 c11 -89 36 -155 53 -144 10 6 12 -4 5 -22 -10 -27 -5 -31
27 -21 31 10 45 2 56 -32 12 -39 16 -40 24 -11 5 19 22 35 37 35 16 0 29 14
29 31 0 24 -8 26 -41 8 -39 -20 -41 -18 -27 52 10 54 7 72 -11 66 -13 -4 -23
-16 -21 -25 3 -18 -38 -51 -64 -52 -7 0 -11 25 -7 55 7 70 -6 105 -40 105 -16
0 -24 -18 -20 -45z"/>
<path d="M3857 7425 c-60 -69 -59 -80 8 -77 54 3 65 11 65 51 0 60 -34 73 -73
26z"/>
<path d="M2843 7415 c-16 -16 -12 -29 13 -48 42 -32 64 -34 64 -6 0 41 -53 78
-77 54z"/>
<path d="M2780 7321 c-16 -9 -52 -26 -80 -38 -46 -19 -44 -20 25 -17 41 2 75
11 75 19 0 8 13 15 29 15 16 0 34 9 41 20 15 24 -48 25 -90 1z"/>
<path d="M2251 7301 c-7 -11 -8 -30 -1 -41 7 -11 0 -15 -15 -9 -15 6 -50 2
-76 -9 -27 -11 -35 -20 -19 -21 48 -2 39 -117 -10 -129 -40 -10 -54 -97 -23
-147 8 -13 -1 -18 -24 -12 -43 12 -68 -33 -41 -75 9 -15 18 -19 18 -8 0 22
120 33 120 11 0 -7 -10 -23 -22 -35 -17 -17 -1 -18 61 -4 46 10 91 14 101 8 9
-6 20 1 25 14 6 19 11 19 23 0 10 -16 -8 -35 -52 -54 -36 -15 -58 -29 -49 -29
10 -1 2 -24 -16 -52 -33 -50 -33 -51 6 -30 56 29 72 26 43 -9 -14 -16 -19 -30
-11 -30 7 0 -1 -20 -18 -44 -42 -61 -39 -90 6 -49 20 18 54 33 75 33 53 0 171
110 157 147 -7 17 -29 25 -55 20 -41 -9 -40 -7 5 20 27 16 63 24 80 19 19 -6
23 -3 10 7 -66 52 -46 81 42 61 62 -14 102 -14 134 1 l45 22 -49 2 c-47 1 -47
2 -10 30 50 38 69 38 69 1 0 -16 9 -30 20 -30 11 0 20 19 20 42 0 35 -9 41
-51 33 -32 -6 -48 -2 -43 13 11 33 149 44 309 25 84 -11 85 -10 56 32 -22 32
-24 49 -7 69 46 57 -78 110 -131 56 -17 -16 -36 -30 -44 -30 -7 0 -31 -23 -54
-51 -24 -32 -52 -47 -71 -40 -17 7 -38 1 -47 -13 -14 -21 -20 -21 -34 1 -13
19 -22 21 -32 5 -7 -12 -4 -22 8 -22 11 0 21 -17 21 -37 0 -29 -11 -35 -50
-28 -32 6 -50 1 -50 -15 0 -18 -22 -22 -78 -13 -52 9 -97 3 -135 -17 -78 -41
-155 -40 -139 2 7 17 12 40 12 51 0 11 18 14 40 7 36 -11 43 -3 39 43 -2 20
119 67 174 67 122 0 223 42 218 90 -5 42 -1 44 54 25 40 -14 71 -13 102 2 23
12 66 25 93 29 48 7 48 7 -10 22 -33 8 -75 22 -92 32 -18 9 -41 10 -50 1 -31
-28 -162 -39 -186 -15 -13 13 -22 14 -22 2 0 -11 -31 -16 -71 -12 -57 7 -66
14 -47 36 17 21 17 28 -1 28 -14 0 -40 -18 -58 -40 -24 -29 -41 -34 -63 -20
-24 16 -21 19 15 20 25 0 45 9 45 20 0 11 -25 19 -55 18 -30 -2 -70 3 -88 11
-18 7 -39 4 -46 -8z m326 -124 c3 -9 15 -12 24 -6 10 6 14 -2 8 -17 -7 -18
-29 -25 -60 -19 -27 5 -49 0 -49 -11 0 -11 -18 -16 -40 -10 -31 8 -38 3 -28
-22 7 -17 2 -32 -10 -32 -12 0 -22 9 -22 20 0 11 -10 20 -21 20 -12 0 -16 -9
-9 -20 7 -12 -20 -20 -69 -20 -59 0 -87 -11 -106 -40 -13 -22 -38 -40 -54 -40
-21 0 -18 8 10 29 22 17 28 30 14 30 -14 1 -25 11 -25 23 0 12 13 17 28 11 29
-11 61 38 54 82 -5 32 15 31 83 -4 48 -25 55 -25 55 0 0 16 9 29 20 29 11 0
20 -9 20 -20 0 -11 16 -20 35 -20 28 1 29 4 7 18 -15 10 -21 28 -13 41 16 26
136 8 148 -22z m462 -129 c16 -15 24 -31 19 -37 -13 -13 -157 55 -157 74 -1
23 104 -6 138 -37z"/>
<path d="M3669 7301 c-22 -9 -52 -31 -67 -49 -15 -17 -33 -28 -40 -23 -7 4
-15 -16 -17 -45 l-4 -54 39 50 c21 28 39 38 40 24 0 -15 9 -21 19 -15 11 7 14
27 7 45 -8 20 -5 28 8 20 11 -7 37 5 56 26 38 42 26 48 -41 21z"/>
<path d="M2040 7252 c0 -15 -13 -33 -30 -39 -16 -7 -30 -27 -30 -45 0 -19 -32
-92 -71 -162 -40 -70 -68 -138 -64 -152 5 -13 -3 -69 -18 -124 -44 -164 -32
-183 69 -112 75 53 163 79 129 38 -14 -16 -18 -37 -10 -46 8 -9 5 -11 -7 -4
-12 7 -65 -4 -118 -24 -204 -77 -225 -421 -26 -406 45 4 56 -4 56 -36 0 -55
61 -172 150 -289 70 -91 72 -100 57 -198 -21 -135 -22 -533 -1 -533 9 0 9 -11
1 -25 -9 -14 -16 -79 -17 -146 l0 -121 145 149 c129 133 325 451 325 527 0 10
33 53 73 96 118 128 136 160 93 160 -74 1 -84 28 -33 90 26 33 43 45 36 26
-27 -73 17 -97 78 -43 68 58 56 87 -16 39 -74 -48 -62 -25 19 36 43 34 65 42
58 23 -15 -38 -7 -39 65 -1 77 40 225 40 240 0 12 -32 141 -37 160 -6 13 22
127 20 127 -2 0 -9 23 -22 51 -27 41 -8 49 -3 39 23 -10 26 -7 27 13 7 14 -14
45 -25 70 -25 25 0 66 -27 98 -65 29 -36 48 -49 42 -30 -7 19 -3 35 8 35 11 0
6 22 -12 49 -30 46 -30 51 8 83 23 20 36 43 29 54 -6 11 8 12 36 3 44 -13 45
-12 19 20 -35 42 -48 111 -22 111 10 0 23 -16 29 -35 14 -41 152 -156 152
-126 0 12 -11 21 -23 21 -13 0 -18 6 -10 14 7 7 41 -7 75 -32 34 -25 66 -41
72 -35 5 6 31 2 57 -7 59 -23 47 29 -14 62 -45 24 -81 103 -54 119 10 7 -13
22 -52 33 l-69 22 34 -52 c32 -49 32 -51 -1 -39 -19 8 -35 5 -35 -6 0 -10 -13
-19 -29 -19 -19 0 -25 12 -17 33 9 22 4 29 -16 22 -15 -5 -57 17 -93 51 -35
34 -71 54 -80 45 -8 -9 -4 -20 10 -25 14 -5 25 -27 25 -48 0 -37 -23 -46 -110
-40 -30 2 -24 -6 22 -33 61 -34 62 -36 25 -73 -24 -26 -37 -30 -37 -13 0 71
-143 119 -217 73 -13 -8 -53 -13 -88 -11 -102 5 -115 1 -116 -36 0 -30 -4 -29
-25 7 -13 23 -37 38 -52 32 -19 -6 -24 1 -16 22 8 22 3 29 -15 21 -16 -5 -38
9 -50 31 -12 23 -38 42 -58 42 -19 0 -44 8 -54 19 -11 11 -48 11 -89 2 -38 -9
-54 -18 -35 -19 55 -3 42 -29 -35 -71 -38 -20 -70 -46 -70 -58 0 -11 -33 -50
-73 -87 -39 -36 -62 -66 -49 -66 17 0 18 -11 2 -41 -12 -22 -30 -35 -41 -29
-10 7 -13 -2 -7 -19 9 -23 4 -28 -20 -19 -33 13 -44 -13 -17 -40 8 -8 16 -40
17 -71 3 -55 2 -55 -35 -18 -31 31 -46 34 -80 15 -34 -18 -37 -26 -15 -41 20
-14 13 -15 -22 -6 -27 7 -58 21 -69 31 -19 18 -71 -14 -71 -44 0 -10 32 -18
70 -18 81 0 93 -30 19 -48 -31 -8 -45 -22 -37 -36 9 -13 5 -17 -9 -8 -13 8
-23 3 -23 -10 0 -14 -5 -19 -12 -13 -6 6 -1 30 11 53 21 38 19 40 -28 22 -33
-12 -51 -12 -51 0 0 11 10 20 21 20 12 0 17 7 12 16 -13 19 60 245 87 272 13
13 20 11 20 -6 0 -22 6 -22 30 -2 37 30 31 39 -33 50 -42 8 -53 -5 -94 -110
-26 -69 -58 -120 -75 -120 -15 0 -28 -13 -28 -30 0 -16 14 -30 30 -30 36 0 39
-23 5 -57 -18 -18 -18 -29 -3 -39 34 -21 50 -90 29 -123 -23 -37 -48 11 -37
72 9 57 -50 45 -66 -13 -9 -33 -15 -38 -16 -14 -1 19 14 59 33 89 32 48 32 52
2 40 -36 -13 -26 57 19 137 11 19 15 69 9 111 -9 66 -4 78 37 94 48 19 119
102 144 169 7 19 1 69 -15 110 -15 41 -26 97 -25 124 3 41 -5 50 -46 48 -27
-2 -55 5 -61 14 -19 29 -148 49 -130 20 8 -14 27 -20 42 -14 15 6 34 0 41 -12
8 -13 5 -17 -7 -9 -13 8 -25 -5 -29 -30 -7 -50 -56 -76 -56 -30 0 37 -86 26
-154 -18 -83 -54 -88 -28 -17 78 31 45 41 77 28 85 -12 7 1 27 31 47 29 19 46
40 39 47 -7 7 2 18 20 24 18 5 47 14 64 20 29 9 29 13 -1 43 -30 30 -26 36 50
82 95 56 96 75 3 43 -36 -12 -87 -18 -114 -13 -34 7 -56 -1 -69 -25 -10 -19
-37 -40 -59 -46 -48 -12 -56 16 -10 34 17 6 27 20 20 30 -23 37 43 66 88 38
36 -22 45 -21 61 4 14 22 10 32 -16 37 -18 3 -43 17 -54 31 -11 13 -38 31 -59
39 -33 12 -35 18 -11 33 15 9 35 13 44 8 9 -6 16 -2 16 9 0 11 -11 24 -25 30
-14 5 -4 11 21 11 39 2 44 9 32 47 -13 41 -11 42 23 15 35 -29 35 -28 1 23
-32 50 -32 55 -1 73 23 12 27 23 11 32 -12 8 -17 35 -10 63 7 27 7 49 0 49 -7
0 -12 -13 -12 -28z m-79 -735 c-66 -54 -96 -45 -42 12 26 28 56 44 67 37 12
-7 1 -28 -25 -49z m979 -503 c0 -10 -13 -13 -28 -8 -15 6 -48 -11 -73 -37 -63
-67 -86 -61 -49 11 30 59 150 85 150 34z m-516 -554 c-19 -33 -46 -60 -60 -60
-29 0 -17 30 34 84 50 53 63 41 26 -24z m-173 -118 c-37 -60 38 -103 82 -47
24 31 26 28 22 -32 -5 -83 -15 -89 -95 -56 -36 15 -56 33 -45 40 11 7 15 35
10 63 -6 30 -1 50 14 50 13 0 18 -8 12 -18z m5 -299 c-30 -21 -45 -22 -63 -4
-34 35 40 89 77 55 20 -19 17 -29 -14 -51z"/>
<path d="M4340 7230 c-26 -27 -37 -50 -24 -50 12 0 39 17 58 37 20 21 50 43
66 49 21 7 18 11 -12 12 -22 1 -62 -20 -88 -48z"/>
<path d="M4211 7149 c-44 -33 -79 -39 -61 -9 7 12 -2 14 -23 6 -25 -9 -27 -16
-9 -22 18 -6 8 -25 -31 -56 l-57 -48 58 21 c32 11 62 15 68 10 6 -6 0 -11 -13
-11 -12 0 -23 -10 -23 -21 0 -12 9 -16 20 -9 11 7 20 -2 20 -19 0 -38 38 -39
85 -3 46 35 44 68 -5 76 -37 6 -38 10 -11 61 16 30 27 55 25 54 -2 0 -21 -13
-43 -30z"/>
<path d="M3609 7070 c-44 -38 -68 -70 -54 -70 17 0 22 -18 16 -51 -6 -34 -1
-49 15 -43 13 4 21 27 18 51 -4 24 3 43 15 43 11 0 21 13 21 28 0 15 29 47 65
70 54 34 58 41 24 42 -23 0 -77 -31 -120 -70z"/>
<path d="M4346 7110 c-23 -16 -59 -24 -79 -18 -24 9 -19 0 13 -24 28 -21 59
-35 70 -33 11 3 3 -8 -19 -25 -32 -25 -33 -30 -6 -30 18 0 38 9 45 20 21 34
50 22 70 -30 20 -51 112 -63 108 -13 -1 13 -3 41 -5 62 -2 27 -13 36 -33 28
-16 -6 -30 -2 -30 9 0 11 -20 15 -45 9 -37 -8 -40 -6 -20 16 56 60 6 81 -69
29z"/>
<path d="M3954 7039 c-34 -33 -35 -39 -5 -97 27 -53 28 -59 1 -49 -16 6 -25
19 -20 28 6 9 3 21 -7 27 -10 7 -24 -9 -31 -33 -10 -37 -15 -40 -31 -16 -10
17 -25 24 -32 17 -19 -20 60 -89 92 -81 16 5 3 -13 -29 -38 -32 -26 -84 -72
-116 -102 -49 -46 -56 -48 -46 -15 9 27 2 44 -21 53 -39 15 -68 -23 -69 -93 0
-27 -10 -63 -22 -80 -16 -23 -18 -20 -8 15 9 32 4 45 -16 45 -43 0 -88 -174
-54 -206 14 -13 21 -15 15 -4 -5 11 16 47 47 80 32 33 58 49 58 35 0 -14 -10
-25 -21 -25 -12 0 -16 -8 -10 -18 6 -11 -2 -32 -19 -49 -16 -17 -30 -40 -30
-52 0 -37 32 -23 59 27 25 48 50 64 181 119 105 44 159 52 211 33 32 -12 49
-10 55 6 7 19 18 18 51 -1 23 -14 56 -25 73 -25 16 0 30 -12 30 -27 0 -14 13
-26 29 -26 16 0 24 9 17 20 -8 12 1 15 20 7 22 -8 41 1 54 27 15 27 15 39 1
39 -12 0 -21 -10 -21 -21 0 -12 -9 -16 -19 -10 -29 18 0 75 32 63 15 -6 27 2
27 19 0 16 -17 29 -38 29 -21 0 -53 6 -71 12 -23 9 -28 4 -19 -20 7 -17 20
-27 30 -21 10 6 12 -3 6 -20 -15 -37 -48 -41 -48 -6 -1 18 -5 18 -18 -2 -13
-21 -26 -22 -59 -5 -23 12 -48 21 -57 19 -9 -2 -33 4 -55 13 -25 11 -41 9 -46
-5 -5 -16 -23 -17 -55 -5 -29 11 -51 11 -57 -2 -6 -10 -8 -8 -5 5 5 27 63 39
187 40 47 0 85 8 85 18 0 11 -14 19 -31 19 -17 0 -25 10 -18 21 7 12 1 20 -14
18 -64 -9 -138 2 -128 19 6 10 2 22 -10 26 -12 4 2 34 30 66 28 33 51 52 51
43 0 -10 13 -7 29 6 34 28 19 83 -18 69 -27 -11 -58 44 -41 72 21 35 -21 34
-56 -1z m-34 -339 c0 -11 -11 -21 -25 -22 -14 -1 -47 -4 -73 -7 -45 -4 -45 -3
-11 22 43 32 109 36 109 7z"/>
<path d="M5009 7018 c0 -43 79 -53 131 -16 23 16 15 19 -34 13 -35 -4 -60 -1
-55 7 5 7 -3 18 -17 24 -15 5 -25 -6 -25 -28z"/>
<path d="M3411 7005 c9 -19 15 -55 14 -80 -1 -56 27 -41 39 21 5 25 -3 57 -17
70 -37 35 -54 29 -36 -11z"/>
<path d="M3761 6948 c-26 -25 -57 -41 -68 -34 -10 7 -13 2 -5 -11 8 -13 4 -23
-8 -23 -43 0 -88 -60 -63 -85 17 -17 38 -6 82 46 33 38 60 60 60 49 1 -11 15
6 31 38 39 74 32 78 -29 20z"/>
<path d="M4331 6965 c-33 -5 -78 -21 -100 -37 -38 -27 -36 -28 29 -17 137 23
160 30 160 49 0 11 -7 19 -15 17 -8 -2 -42 -7 -74 -12z"/>
<path d="M4800 6953 c0 -15 19 -44 41 -64 57 -52 91 -1 37 53 -44 44 -78 49
-78 11z"/>
<path d="M3503 6860 c-13 -36 -13 -60 -2 -60 10 0 19 -14 19 -31 0 -17 -9 -26
-20 -19 -12 7 -20 -11 -20 -44 1 -40 6 -48 18 -28 10 15 27 22 38 15 11 -7 25
1 32 19 19 49 14 72 -11 56 -16 -10 -20 -1 -12 29 6 24 2 43 -8 43 -11 0 -14
18 -7 40 20 64 -4 46 -27 -20z"/>
<path d="M3180 6882 c0 -9 17 -22 37 -27 28 -7 44 -43 64 -142 14 -73 32 -133
40 -133 7 0 4 -41 -7 -91 -16 -67 -29 -88 -50 -79 -25 9 -25 6 -4 -20 33 -40
70 -38 76 5 22 192 -18 404 -91 477 -31 32 -65 37 -65 10z"/>
<path d="M4248 6877 c-6 -10 -18 -13 -26 -8 -8 5 -55 -4 -103 -19 l-89 -27 76
-2 c42 0 95 9 118 21 29 16 45 16 54 1 16 -25 118 -3 127 27 6 25 -142 31
-157 7z"/>
<path d="M3736 6825 c-31 -36 -28 -85 6 -85 10 0 18 13 18 28 0 15 14 33 30
39 19 7 30 0 30 -20 0 -26 5 -27 30 -7 27 22 26 28 -5 52 -47 36 -73 34 -109
-7z"/>
<path d="M3103 6805 c15 -19 35 -41 44 -47 9 -7 -38 -12 -105 -10 -67 1 -122
7 -122 14 0 6 -11 11 -25 12 -14 0 -47 7 -75 15 l-50 16 46 -41 46 -40 -72 2
c-45 1 -83 -11 -105 -35 -34 -35 -33 -36 15 -22 28 8 64 13 80 12 17 -1 89 -4
160 -8 72 -3 150 -11 176 -18 26 -8 40 -5 33 6 -6 10 -24 19 -40 19 -16 0 -29
10 -29 22 0 13 14 16 35 8 19 -8 52 -19 72 -25 25 -7 29 -15 13 -25 -14 -9 -1
-15 32 -15 52 0 53 2 18 28 -21 15 -49 27 -64 27 -14 0 -26 10 -26 22 0 13 18
18 40 12 22 -6 35 -2 29 8 -6 10 -25 18 -42 18 -19 0 -27 11 -20 29 7 19 1 25
-18 18 -16 -6 -29 -1 -29 11 0 12 -10 22 -22 22 -15 0 -13 -12 5 -35z"/>
<path d="M4265 6806 c-36 -5 -65 -15 -65 -23 0 -24 148 -21 180 4 26 20 26 18
3 -12 -32 -40 -18 -95 24 -95 33 0 62 87 32 97 -10 3 -14 15 -8 25 11 18 -41
19 -166 4z"/>
<path d="M3397 6705 c-12 -135 -7 -159 30 -149 26 7 33 22 25 52 -6 23 -12 62
-12 87 0 53 -39 62 -43 10z"/>
<path d="M2580 6660 c0 -11 -13 -20 -29 -20 -16 0 -36 -12 -45 -27 -9 -14 -34
-33 -56 -41 -39 -15 -39 -15 4 -38 24 -13 44 -31 45 -39 0 -8 6 -15 11 -15 6
0 20 0 32 0 16 0 16 8 -1 29 -19 22 -15 33 18 51 23 12 36 32 28 44 -7 13 -4
17 8 9 13 -8 17 2 11 27 -11 42 -26 54 -26 20z"/>
<path d="M3025 6636 c3 -16 -12 -24 -40 -21 -25 2 -45 -3 -45 -13 0 -9 -20
-24 -45 -32 -43 -15 -43 -16 10 -24 30 -5 55 -16 55 -25 0 -9 -31 -10 -69 -1
-80 18 -179 -30 -128 -62 20 -13 17 -17 -13 -18 -22 0 -66 -14 -98 -31 -47
-24 -62 -25 -77 -5 -14 21 -20 21 -28 1 -6 -14 -23 -25 -39 -25 -15 0 -27 -7
-25 -15 2 -8 -4 -32 -13 -52 -10 -24 -7 -43 9 -53 20 -12 20 -18 1 -30 -19
-12 -18 -19 2 -31 17 -11 33 -2 47 26 11 23 38 44 58 47 33 5 33 1 -7 -36 -42
-39 -42 -43 -9 -62 28 -15 50 -3 111 63 42 46 93 84 112 84 34 2 34 3 -1 16
-58 23 8 66 106 70 45 2 81 11 81 20 0 10 18 13 40 7 63 -16 70 26 13 75 -29
25 -47 51 -39 58 7 7 24 3 37 -8 18 -15 29 -15 38 0 8 12 22 21 33 21 22 0 16
-64 -7 -81 -9 -7 8 -34 38 -60 l53 -49 -14 55 c-14 60 15 75 44 23 16 -29 19
-29 31 2 9 23 1 37 -27 44 -22 6 -40 21 -40 33 0 13 -36 44 -80 69 -52 29 -79
36 -75 20z"/>
<path d="M2606 6565 c-44 -45 -30 -78 25 -57 16 6 29 3 29 -7 0 -9 22 -7 49 6
42 20 44 25 15 37 -30 12 -30 13 -1 15 103 4 131 53 30 52 -79 -1 -113 -11
-147 -46z"/>
<path d="M4024 6513 c41 -13 86 -35 99 -48 14 -14 36 -25 50 -25 13 0 30 -18
37 -40 7 -23 30 -40 54 -40 42 0 42 0 2 35 -22 19 -44 48 -49 63 -5 15 -54 40
-108 54 -121 32 -187 33 -85 1z"/>
<path d="M3381 6481 c-28 -52 -29 -50 42 -55 34 -3 57 1 50 7 -6 7 -2 31 9 55
18 38 18 39 -8 7 -35 -43 -62 -46 -47 -5 17 44 -22 37 -46 -9z"/>
<path d="M3933 6468 c12 -5 18 -28 12 -50 -10 -37 -12 -38 -48 -6 -20 19 -44
27 -52 18 -8 -8 -4 -19 10 -24 44 -16 26 -41 -23 -31 -26 5 -70 -6 -96 -23
-27 -18 -55 -26 -63 -19 -7 8 -13 5 -13 -6 0 -38 25 -45 67 -18 24 15 61 24
82 20 22 -4 52 3 67 16 20 17 31 15 45 -6 14 -22 18 -23 19 -3 0 18 14 22 44
13 43 -14 43 -13 7 22 -23 23 -28 40 -14 45 13 4 37 -7 54 -24 18 -18 40 -32
50 -32 11 0 19 -10 19 -21 0 -12 -11 -15 -25 -7 -15 8 -18 7 -8 -4 9 -10 45
-18 80 -18 48 0 64 -10 69 -41 4 -32 21 -42 75 -43 l69 -2 -55 58 c-30 32 -66
58 -80 58 -14 0 -25 9 -25 20 0 11 -22 20 -50 20 -27 0 -67 17 -87 37 -21 21
-63 43 -95 49 -32 7 -48 8 -35 2z"/>
<path d="M3669 6411 c-35 -25 -36 -29 -6 -41 30 -12 157 37 157 61 0 21 -115
7 -151 -20z"/>
<path d="M2880 6331 c0 -15 -18 -34 -40 -41 -67 -21 -46 -55 25 -39 82 17 91
26 54 50 -25 17 -25 21 1 39 26 17 25 19 -5 20 -19 0 -35 -13 -35 -29z"/>
<path d="M2969 6338 c-20 -32 16 -58 100 -72 72 -11 75 -10 53 30 -14 26 -34
38 -52 31 -17 -6 -30 -1 -30 11 0 28 -54 29 -71 0z"/>
<path d="M3805 6304 c-69 -7 -91 -44 -26 -44 21 0 50 -12 65 -27 41 -41 116
-77 116 -55 0 10 -11 23 -25 28 -20 7 -20 14 0 35 20 22 41 18 119 -21 51 -26
106 -47 120 -47 16 0 22 -13 15 -35 -8 -27 -2 -32 29 -24 49 13 14 86 -42 86
-19 0 -42 15 -52 32 -12 21 -53 36 -115 41 -53 4 -106 15 -118 23 -11 8 -50
12 -86 8z"/>
<path d="M4295 6174 c-5 -13 17 -45 48 -71 57 -46 80 -35 32 15 -20 22 -16 24
25 12 48 -15 49 -14 16 23 -39 44 -109 56 -121 21z"/>
<path d="M2750 6096 c-71 -70 -74 -76 -25 -54 30 13 68 46 86 72 17 26 41 41
53 34 13 -9 17 -5 8 9 -21 33 -33 27 -122 -61z"/>
<path d="M4223 6082 c-23 -15 -23 -20 1 -35 15 -9 40 -45 53 -79 16 -38 53
-75 97 -96 87 -41 108 -30 32 18 -96 60 -164 162 -91 136 42 -15 106 -78 93
-91 -5 -6 3 -15 19 -21 21 -8 26 0 18 32 -15 63 -44 94 -88 94 -21 0 -43 14
-50 30 -13 34 -43 38 -84 12z"/>
<path d="M2615 6006 c-19 -5 -35 -22 -35 -37 0 -21 -12 -24 -47 -10 -47 18
-53 -13 -22 -115 15 -46 87 9 75 57 -8 30 0 44 31 53 24 6 43 23 43 38 0 16
-2 27 -5 26 -3 -2 -21 -7 -40 -12z"/>
<path d="M4001 5918 c11 -21 34 -38 50 -38 16 0 29 -7 29 -16 0 -9 34 -33 75
-53 41 -20 64 -40 50 -45 -39 -14 -30 -55 25 -106 27 -26 45 -51 40 -57 -6 -6
-35 14 -65 43 -39 36 -64 47 -84 35 -23 -14 -16 -24 30 -43 32 -14 83 -48 113
-74 l54 -49 -12 46 c-9 31 -5 41 11 31 13 -8 23 -5 23 7 0 12 -23 31 -51 41
-28 11 -46 29 -39 40 17 27 70 26 70 -2 0 -12 18 -45 40 -73 l40 -50 0 56 c0
30 6 49 14 42 24 -24 25 -80 2 -107 -16 -20 -12 -26 17 -28 20 0 26 -6 13 -11
-13 -5 -19 -23 -13 -38 6 -16 1 -29 -11 -29 -12 0 -22 8 -22 18 0 10 -15 23
-32 30 -23 9 -29 4 -21 -18 15 -39 -15 -39 -47 0 -14 17 -42 30 -62 30 -21 0
-38 10 -38 21 0 12 9 16 20 9 11 -7 20 -4 20 7 0 11 -31 30 -68 42 -38 13 -74
37 -80 53 -6 17 -22 24 -34 17 -14 -9 -2 -31 35 -60 31 -25 65 -40 75 -34 11
6 13 -2 7 -19 -7 -17 -2 -41 10 -53 15 -15 15 -29 -1 -49 -16 -19 -17 -33 -2
-48 15 -15 15 -25 0 -35 -27 -16 -51 37 -35 78 8 21 1 25 -23 17 -19 -7 -27
-5 -20 4 16 17 -32 115 -91 184 -20 23 -31 53 -24 64 7 12 2 41 -11 66 -21 39
-26 40 -36 12 -11 -31 -17 -30 -62 7 -31 25 -37 37 -16 30 55 -18 60 19 9 53
-84 55 -68 -69 19 -145 84 -74 71 -81 -20 -11 -36 28 -76 50 -88 50 -12 0 -36
20 -53 44 -17 25 -31 34 -31 21 0 -13 -13 -19 -30 -12 -46 17 -37 -48 10 -73
22 -12 40 -15 40 -7 0 8 21 -6 47 -30 29 -27 60 -39 80 -31 18 7 34 2 36 -10
1 -12 4 -31 7 -42 3 -11 6 -29 8 -40 1 -11 12 -20 24 -20 17 0 17 7 1 27 -13
15 -17 33 -10 40 17 17 67 -25 67 -56 0 -34 -63 -32 -103 3 -18 16 -38 21 -43
12 -14 -22 89 -154 126 -162 40 -9 75 -44 44 -44 -13 0 -24 -10 -24 -22 0 -12
14 -17 30 -11 17 7 31 5 32 -3 1 -8 4 -34 6 -59 3 -25 13 -52 22 -60 9 -8 11
1 4 20 -8 23 -3 35 17 35 16 0 29 -9 29 -19 0 -11 14 -15 30 -8 20 7 30 -1 31
-26 2 -35 3 -35 17 2 10 26 20 31 30 15 8 -13 9 -32 3 -43 -7 -10 4 -28 24
-39 29 -18 30 -24 7 -40 -23 -15 -21 -25 10 -57 44 -46 229 -84 192 -40 -12
15 -25 58 -29 97 -4 38 -14 80 -22 94 -9 14 -2 38 16 56 36 36 41 88 9 88 -12
0 -17 -13 -11 -30 7 -16 3 -30 -8 -30 -11 0 -28 22 -39 50 -12 33 -29 45 -49
37 -17 -6 -31 -3 -31 8 0 22 110 22 132 0 31 -32 46 -12 35 45 -17 83 27 78
49 -5 14 -51 11 -68 -14 -79 -19 -8 -22 -14 -7 -15 14 0 25 -18 25 -39 0 -21
-11 -43 -25 -49 -18 -7 -17 -10 4 -11 21 -2 18 -10 -10 -32 -37 -28 -36 -29
15 -11 44 16 52 14 43 -10 -6 -16 -1 -29 12 -29 13 0 18 -9 11 -20 -7 -12 -21
-15 -31 -9 -11 6 -19 -8 -19 -32 0 -37 5 -40 30 -19 21 17 30 18 30 2 0 -12 9
-22 20 -22 29 0 14 86 -20 114 -16 14 -22 25 -13 25 10 1 6 16 -10 35 -15 19
-17 28 -3 20 13 -8 29 -6 35 4 6 11 4 24 -6 30 -15 10 -26 83 -26 177 1 20 -8
31 -18 24 -11 -6 -19 -2 -19 10 0 11 -13 21 -30 21 -16 0 -30 10 -30 22 0 12
14 17 30 11 48 -19 35 11 -39 92 -38 41 -60 75 -49 75 12 0 11 15 -2 40 -18
33 -15 40 14 42 28 1 30 4 6 13 -16 6 -34 17 -40 23 -5 7 -36 24 -67 38 -70
31 -66 -13 5 -48 35 -18 38 -25 14 -35 -17 -6 -35 -4 -41 5 -5 9 -53 29 -105
43 -87 24 -91 28 -46 41 l50 14 -54 2 c-29 1 -59 10 -65 20 -24 40 -91 40 -70
0z m288 -649 c17 -18 31 -22 31 -11 0 11 13 16 28 10 19 -7 29 -42 29 -100 0
-48 -9 -83 -19 -77 -10 6 -18 23 -18 37 0 14 -17 41 -38 60 -33 30 -71 112
-52 112 4 0 21 -14 39 -31z"/>
<path d="M3909 5918 c-8 -12 6 -41 30 -65 39 -39 42 -39 29 -5 -12 30 -8 35
14 22 15 -9 11 3 -10 27 -44 50 -45 50 -63 21z"/>
<path d="M2469 5798 c-11 -17 -35 -37 -54 -44 -39 -14 -49 -57 -11 -49 43 9
101 71 92 98 -7 20 -13 19 -27 -5z"/>
<path d="M3092 5726 c-6 -7 -12 -25 -12 -41 0 -15 -14 -42 -31 -59 -26 -26
-27 -35 -5 -49 44 -28 78 -19 72 18 -3 19 4 33 17 31 13 -3 34 8 47 24 18 22
34 24 62 9 30 -16 38 -14 38 11 0 17 -11 35 -25 39 -61 19 -151 28 -163 17z"/>
<path d="M4800 5631 c0 -33 76 -81 97 -61 7 7 -3 22 -23 33 -19 11 -30 28 -23
38 6 11 -3 19 -20 19 -17 0 -31 -13 -31 -29z"/>
<path d="M4602 5579 c-1 -28 11 -69 27 -90 23 -30 30 -32 31 -9 1 27 3 27 19
0 16 -24 24 -25 44 -5 20 20 18 32 -9 59 -21 22 -34 25 -34 10 0 -43 -32 -25
-54 31 l-22 55 -2 -51z"/>
<path d="M3118 5430 c-8 -29 -13 -44 -32 -90 -41 -99 -44 -131 -16 -180 21
-36 29 -41 29 -16 1 18 -7 39 -17 45 -33 20 50 200 96 207 59 9 53 44 -8 44
-27 0 -51 -4 -52 -10z"/>
<path d="M4686 5426 c-13 -5 -18 -23 -11 -41 10 -28 14 -27 26 6 12 34 18 29
45 -31 30 -68 31 -69 32 -16 2 56 -46 98 -92 82z"/>
<path d="M2942 5385 c-1 -13 16 -36 37 -49 29 -18 33 -31 18 -50 -29 -35 -2
-33 33 1 30 30 5 73 -42 73 -14 0 -29 11 -35 25 -8 20 -10 20 -11 0z"/>
<path d="M2631 5315 c-19 -63 -30 -195 -16 -195 20 0 68 115 73 175 4 47 -43
64 -57 20z"/>
<path d="M3172 5289 c-6 -17 -21 -26 -32 -19 -37 23 -20 -13 23 -48 24 -20 42
-57 42 -89 0 -39 6 -48 24 -34 12 11 45 15 72 9 45 -10 46 -9 14 18 -19 15
-35 38 -35 51 0 12 -12 17 -27 11 -35 -13 -62 51 -34 79 29 29 26 53 -7 53
-15 0 -33 -14 -40 -31z"/>
<path d="M4689 5266 c5 -35 1 -66 -9 -70 -10 -3 4 -16 31 -29 27 -13 45 -16
39 -7 -5 9 4 21 20 27 52 20 37 93 -18 93 -27 0 -54 11 -61 25 -6 14 -7 -4 -2
-39z"/>
<path d="M3987 5171 c7 -18 -5 -31 -33 -37 -24 -4 -9 -8 34 -8 64 1 72 5 45
24 -18 13 -27 30 -19 37 7 7 1 13 -13 13 -14 0 -20 -13 -14 -29z"/>
<path d="M2740 5157 c0 -23 98 -32 108 -9 6 14 16 11 30 -8 12 -16 22 -21 22
-11 0 10 10 9 22 -3 13 -13 35 -18 51 -12 19 7 24 0 15 -22 -7 -17 -2 -32 10
-32 29 0 27 42 -4 83 -25 32 -254 45 -254 14z"/>
<path d="M2692 5089 c-8 -29 -9 -59 -2 -65 6 -6 26 4 45 22 31 31 31 37 2 66
-29 29 -33 27 -45 -23z"/>
<path d="M2807 5070 c-6 -16 -23 -30 -37 -30 -36 0 -52 -51 -33 -104 16 -41
18 -40 45 20 30 68 48 79 65 39 6 -15 10 -12 11 9 1 18 -7 39 -18 46 -12 7
-15 21 -9 31 6 11 6 19 0 19 -7 0 -17 -13 -24 -30z"/>
<path d="M3087 5049 c-18 -46 41 -98 86 -79 21 9 44 15 52 13 32 -7 13 39 -20
49 -19 6 -51 19 -70 30 -27 14 -39 11 -48 -13z"/>
<path d="M3940 5062 c0 -9 15 -29 34 -45 29 -24 32 -23 20 8 -7 19 -7 35 -1
35 7 0 25 -16 41 -35 16 -19 23 -24 16 -10 -7 14 -1 25 14 25 19 1 18 6 -4 20
-38 24 -120 26 -120 2z"/>
<path d="M2920 5021 c0 -11 9 -21 20 -21 11 0 20 -9 20 -19 0 -11 -15 -14 -32
-7 -28 10 -29 6 -9 -32 18 -33 18 -61 2 -107 -18 -54 -16 -66 14 -83 80 -46
121 -14 50 40 -23 17 -26 27 -9 27 18 1 20 11 6 37 -33 62 60 44 96 -19 17
-30 53 -65 80 -77 47 -22 47 -21 15 28 -20 31 -25 55 -13 62 27 17 26 90 -1
90 -12 0 -36 -14 -53 -31 -18 -18 -37 -24 -44 -14 -7 10 -28 24 -47 31 -21 8
-33 30 -30 58 3 29 -7 47 -30 52 -19 4 -35 -3 -35 -15z"/>
<path d="M4142 4977 c31 -43 49 -55 55 -36 5 15 -1 30 -14 35 -13 4 -23 20
-23 36 0 15 -14 28 -31 28 -26 0 -23 -12 13 -63z"/>
<path d="M4232 5023 c-8 -12 -4 -40 8 -63 17 -32 15 -43 -9 -52 -18 -7 -31
-35 -30 -65 l1 -53 31 58 c24 44 35 51 48 30 37 -59 39 4 3 83 -22 48 -44 75
-52 62z"/>
<path d="M3320 5000 c0 -7 11 -24 25 -39 20 -21 20 -24 0 -13 -43 24 -28 -39
18 -80 42 -37 43 -37 30 0 -8 20 -4 49 9 64 32 39 8 86 -41 83 -23 -2 -41 -9
-41 -15z"/>
<path d="M3569 4945 c-12 -8 -28 -31 -35 -50 -7 -19 -23 -35 -35 -35 -12 0
-16 9 -9 20 7 11 3 20 -8 20 -34 0 -47 -40 -22 -70 17 -21 17 -37 1 -64 -21
-32 -22 -32 -11 7 10 36 5 42 -28 33 -26 -6 -48 4 -65 32 -15 23 -35 42 -45
42 -10 0 -5 -16 12 -35 16 -19 35 -50 41 -67 17 -46 84 -58 146 -26 90 47 104
30 19 -23 -49 -29 -66 -49 -45 -49 19 0 35 -7 35 -15 0 -8 23 -16 50 -18 37
-2 50 7 50 35 0 25 14 38 40 38 22 0 40 13 40 28 0 16 11 34 25 40 20 10 20
14 0 24 -14 6 -25 22 -25 35 0 13 -28 35 -62 48 -34 13 -56 32 -49 44 16 25 9
26 -20 6z"/>
<path d="M2569 4922 c10 -16 -47 -78 -62 -67 -32 23 -25 -3 8 -35 54 -50 64
-50 51 -2 -5 21 0 44 12 51 28 17 29 71 1 71 -12 0 -16 -8 -10 -18z"/>
<path d="M2642 4916 c33 -23 2 -125 -48 -159 -11 -7 -14 -28 -7 -46 7 -19 4
-28 -7 -21 -22 14 -26 -11 -8 -58 15 -39 68 6 68 58 0 18 7 28 16 23 9 -6 17
8 19 31 4 56 23 71 46 35 16 -25 18 -24 19 4 0 53 -67 157 -100 156 -26 -1
-25 -5 2 -23z"/>
<path d="M4340 4925 c1 -8 37 -51 82 -95 77 -77 88 -59 24 42 -14 22 -20 47
-13 55 8 7 -10 13 -40 13 -29 0 -53 -7 -53 -15z"/>
<path d="M2795 4871 c-40 -29 -46 -64 -11 -76 15 -5 8 -23 -20 -51 -25 -25
-38 -56 -31 -75 9 -23 2 -30 -23 -26 -19 4 -45 -11 -57 -33 -13 -22 -28 -44
-35 -50 -7 -5 -23 -31 -36 -56 -13 -25 -34 -39 -46 -31 -15 9 -19 -1 -11 -29
6 -24 0 -46 -15 -51 -16 -6 -31 10 -39 39 -14 58 -51 45 -51 -18 0 -25 -17
-55 -38 -68 -33 -21 -37 -18 -30 20 5 24 3 33 -3 19 -17 -36 -45 -31 -55 10
-6 21 -10 14 -12 -20 -3 -78 -42 -137 -72 -108 -18 16 -14 30 18 56 42 34 42
35 6 130 -61 162 -79 260 -55 304 29 55 26 84 -6 71 -34 -13 -113 -168 -106
-208 3 -17 15 -48 26 -70 13 -23 15 -57 6 -80 -9 -22 -17 -78 -18 -125 -1 -95
-21 -107 -68 -40 -23 34 -31 37 -32 13 -1 -17 18 -49 41 -70 115 -104 153
-308 157 -848 1 -192 -79 -670 -155 -920 -18 -60 -36 -121 -40 -135 -6 -20
174 -24 878 -20 l885 5 14 50 c7 28 41 109 74 180 60 128 112 391 69 350 -12
-11 -24 -33 -28 -49 -3 -16 -26 -52 -51 -80 -25 -28 -50 -64 -56 -81 -14 -38
-206 -193 -300 -240 -159 -82 -449 -35 -585 95 -36 34 -42 32 -31 -11 5 -20
-4 -48 -21 -62 -34 -28 -80 -11 -66 25 37 99 36 108 -20 119 -31 6 -69 0 -84
-13 -24 -19 -27 -15 -17 22 6 25 4 45 -6 45 -28 0 -94 -108 -83 -138 6 -19 18
-8 35 30 16 35 26 45 27 25 2 -28 -40 -92 -115 -177 -5 -5 -13 1 -17 15 -5 14
-19 19 -31 12 -14 -9 -17 2 -10 30 11 42 -3 52 -63 44 -17 -2 -23 8 -16 26 6
16 0 45 -15 64 -26 37 -20 100 14 144 15 19 6 22 -43 12 -53 -10 -61 -7 -50
21 9 24 4 29 -20 20 -34 -13 -45 22 -13 41 11 7 15 25 9 40 -11 28 71 99 91
79 6 -6 -6 -20 -27 -32 -30 -17 -32 -24 -9 -38 20 -13 20 -17 2 -18 -14 0 -25
-9 -25 -20 0 -37 44 -21 54 20 7 26 27 40 59 40 52 0 53 111 2 175 -11 14 -12
25 -2 25 9 0 18 23 20 50 3 56 0 58 -55 29 -46 -25 -79 28 -41 66 17 17 23 16
23 -3 0 -51 46 -9 52 48 4 39 -6 66 -33 85 -35 24 -112 145 -93 145 4 0 34
-22 66 -50 32 -27 78 -50 101 -50 32 0 47 -16 57 -60 14 -62 77 -85 97 -35 7
19 15 18 31 -5 19 -27 21 -27 22 0 1 18 15 7 35 -25 41 -66 72 -72 55 -10 -12
44 -11 44 19 6 17 -21 34 -34 37 -30 4 5 22 31 41 58 18 28 33 39 33 25 0 -21
89 -16 117 7 7 6 -37 94 -55 109 -7 6 -27 39 -46 75 -34 65 -25 86 20 41 18
-18 32 -15 61 12 22 19 42 26 46 14 4 -11 18 -14 31 -6 18 11 11 30 -25 69
-27 29 -49 63 -49 74 0 12 -9 21 -20 21 -11 0 -20 -10 -20 -21 0 -12 -11 -15
-25 -7 -14 8 -10 -2 8 -24 21 -25 27 -52 17 -78 -16 -40 -16 -40 -29 0 -8 22
-22 56 -32 75 -11 19 -19 48 -19 65 0 16 -12 30 -27 30 -15 0 -51 23 -81 50
-65 60 -72 61 -72 10 0 -25 13 -40 35 -40 28 -1 29 -4 7 -18 -17 -11 -22 -32
-14 -53 12 -33 14 -33 39 1 19 25 31 29 41 13 8 -13 22 -19 31 -13 9 5 22 -3
28 -18 7 -20 -4 -27 -39 -23 -27 3 -54 -2 -60 -12 -6 -9 -28 -17 -49 -17 -62
0 -45 -33 36 -69 108 -48 129 -60 122 -71 -4 -5 14 -39 38 -74 25 -35 37 -68
27 -75 -10 -6 -23 0 -29 14 -8 20 -10 20 -11 0 -1 -14 -12 -25 -23 -25 -13 0
-16 17 -8 43 9 29 6 38 -10 28 -14 -9 -18 -37 -12 -68 11 -49 7 -53 -59 -55
-43 -1 -68 7 -63 20 4 12 27 20 50 17 55 -6 54 2 -7 63 -27 28 -50 59 -50 69
0 29 -53 42 -76 19 -16 -16 -18 -9 -10 22 10 40 6 43 -44 30 -38 -9 -52 -7
-43 8 8 12 -2 31 -22 42 -19 12 -26 21 -15 21 11 1 -7 23 -40 50 -48 40 -53
50 -24 50 20 1 51 -13 68 -30 40 -40 55 -24 27 29 -12 23 -38 42 -57 43 -19 0
-52 15 -74 32 -39 32 -39 32 5 21 25 -5 45 -2 45 9 0 11 9 14 20 7 11 -7 20 2
20 19 0 17 10 31 23 31 13 0 2 18 -23 40 -25 22 -49 40 -53 40 -14 0 -6 -18
20 -45 24 -23 18 -30 -38 -47 -56 -18 -63 -16 -54 11 9 25 6 26 -16 6 -15 -14
-36 -25 -48 -24 -12 0 -5 13 15 28 20 15 56 23 80 17 44 -9 44 -9 4 25 -28 23
-32 36 -15 43 39 15 29 66 -12 66 -27 0 -38 14 -38 51 0 38 8 48 30 40 35 -13
125 39 125 72 0 12 -13 16 -29 10 -19 -7 -25 -1 -18 18 6 16 21 23 33 15 38
-23 121 -25 147 -3 31 25 67 6 67 -35 0 -17 9 -25 19 -19 11 7 14 25 8 42 -11
28 23 39 92 30 21 -3 23 2 8 22 -12 15 -25 39 -30 53 -5 19 -18 16 -49 -13
-33 -30 -47 -33 -73 -14 -37 27 -25 118 13 105 28 -11 92 21 92 46 0 12 -18
12 -48 1 -41 -16 -46 -13 -38 19 6 20 20 33 33 28 13 -5 53 23 90 62 65 68
103 88 103 52 0 -10 32 -21 70 -26 88 -10 89 9 1 61 -48 28 -71 33 -78 17 -6
-13 -12 10 -14 51 -7 134 -13 144 -64 106z m-218 -553 c-41 -26 -82 -22 -64 7
37 61 57 71 74 41 12 -20 8 -37 -10 -48z m83 -878 c0 -33 -8 -60 -18 -60 -25
0 -38 42 -26 85 14 57 44 40 44 -25z m51 -892 c-17 -17 -41 -48 -52 -70 -29
-54 -65 -49 -47 7 15 50 64 93 104 94 20 1 19 -7 -5 -31z"/>
<path d="M3220 4883 c0 -11 11 -24 25 -30 20 -8 20 -10 0 -11 -74 -5 18 -164
107 -186 59 -15 41 51 -29 106 -29 23 -53 60 -53 83 0 23 -11 45 -25 50 -14 5
-25 -1 -25 -12z"/>
<path d="M3951 4842 c-7 -20 -16 -72 -22 -115 -10 -86 -95 -174 -154 -159 -19
4 -40 0 -46 -10 -7 -10 -19 -14 -28 -8 -10 5 -16 -21 -15 -59 2 -83 0 -86 -81
-100 -51 -9 -62 -5 -52 19 6 16 4 31 -6 32 -82 7 -121 13 -146 20 -51 14 -44
-53 8 -82 28 -15 51 -42 51 -61 0 -26 15 -34 60 -31 71 5 75 -12 16 -67 -47
-45 -72 -50 -113 -23 -21 13 -18 20 10 31 54 22 -23 50 -98 36 -69 -13 -98 44
-44 83 34 25 33 27 -12 23 -27 -2 -69 14 -94 36 -25 22 -45 30 -45 17 0 -15
-14 -17 -45 -5 -25 9 -43 28 -40 41 4 12 -3 18 -14 11 -10 -7 -14 -27 -7 -45
10 -25 5 -30 -21 -20 -28 11 -33 3 -27 -41 6 -37 19 -53 40 -49 17 3 37 -4 44
-15 7 -12 32 -21 56 -21 37 -1 39 -4 14 -22 -24 -18 -22 -19 10 -8 93 33 116
36 102 13 -9 -14 1 -28 22 -35 20 -6 56 -21 81 -33 25 -12 82 -23 127 -25 44
-1 88 -14 97 -28 12 -19 34 -8 85 43 38 38 82 75 98 82 22 11 23 15 2 25 -20
9 -16 20 15 42 23 16 36 37 30 48 -15 23 130 161 153 146 33 -20 18 -44 -37
-57 -46 -12 -49 -17 -21 -33 55 -30 141 20 130 76 -8 44 6 55 61 47 14 -1 25
16 25 38 0 23 -9 41 -21 41 -14 0 -14 13 1 40 15 27 15 40 1 40 -12 0 -21 10
-21 22 0 77 -110 162 -129 100z"/>
<path d="M3074 4747 c9 -24 6 -29 -14 -17 -17 10 -21 8 -13 -5 7 -12 3 -25
-10 -29 -17 -6 -17 -19 0 -51 14 -25 36 -39 52 -33 16 7 30 -4 34 -25 5 -25
28 -36 82 -39 68 -4 73 -1 54 34 -11 21 -34 38 -51 38 -26 0 -26 5 3 34 27 27
28 36 8 43 -15 5 -30 1 -33 -9 -17 -49 -49 -77 -59 -53 -6 14 -25 25 -44 26
-30 0 -30 3 2 27 35 26 30 92 -7 92 -9 0 -11 -15 -4 -33z"/>
<path d="M4431 4726 c-15 -39 35 -97 67 -77 34 21 26 68 -16 90 -29 16 -41 13
-51 -13z"/>
<path d="M4258 4699 c-13 -8 -8 -43 13 -97 19 -46 39 -79 44 -74 6 6 29 1 53
-11 35 -18 38 -17 17 5 -32 34 -32 58 1 58 14 0 40 -31 57 -70 18 -38 24 -70
15 -70 -10 0 -18 9 -18 20 0 11 -14 20 -32 20 -21 0 -28 -11 -20 -32 7 -17 12
-35 12 -40 0 -4 16 -8 36 -8 25 0 43 -27 62 -90 14 -49 34 -85 44 -79 10 7 11
26 1 45 -10 19 -24 73 -31 122 -7 48 -31 110 -52 137 -22 27 -35 57 -29 67 39
62 -102 141 -173 97z"/>
<path d="M2445 4675 c7 -18 0 -36 -16 -43 -37 -14 -37 -54 0 -103 29 -40 89 0
90 61 0 11 -8 7 -19 -10 -16 -24 -19 -21 -20 17 0 28 10 43 25 38 35 -12 44
-97 12 -117 -21 -13 -19 -17 8 -18 67 0 46 125 -28 169 -53 31 -62 32 -52 6z"/>
<path d="M2842 4617 c-5 -76 16 -92 89 -69 89 28 89 59 0 48 -51 -6 -72 1 -78
23 -7 26 -9 25 -11 -2z"/>
<path d="M3298 4615 c0 -14 -4 -41 -8 -60 -3 -19 2 -40 12 -46 10 -6 18 7 18
29 0 22 9 45 20 52 30 19 24 50 -10 50 -16 0 -31 -11 -32 -25z"/>
<path d="M3510 4615 c-22 -12 -47 -32 -54 -46 -9 -13 -38 -19 -65 -14 -28 5
-51 1 -51 -9 0 -35 26 -46 53 -23 21 17 27 14 27 -12 0 -19 11 -30 25 -25 14
5 41 0 60 -9 45 -23 47 14 4 57 -38 37 -22 61 19 28 34 -28 52 -6 34 42 -10
27 -20 29 -52 11z"/>
<path d="M3021 4575 c-1 -23 -22 -40 -59 -48 -54 -10 -72 -87 -20 -87 9 0 12
14 5 30 -17 45 107 48 140 3 12 -17 19 -17 26 2 7 18 21 19 49 4 26 -14 38
-14 38 0 0 12 -16 22 -35 23 -19 2 -47 4 -62 5 -14 2 -39 26 -54 53 -21 39
-28 42 -28 15z"/>
<path d="M2331 4507 c-7 -19 -3 -43 8 -54 15 -15 21 -14 21 3 0 13 15 24 32
24 27 0 28 5 8 30 -32 39 -53 38 -69 -3z"/>
<path d="M2824 4377 c0 -46 17 -111 37 -144 28 -45 32 -70 17 -101 -19 -40
-19 -41 10 -4 22 27 25 48 10 75 -19 36 4 114 31 102 29 -13 34 -2 11 25 -20
24 -20 36 0 60 29 35 13 39 -41 9 -33 -17 -39 -14 -39 20 0 23 -8 41 -19 41
-10 0 -18 -38 -17 -83z"/>
<path d="M4870 4360 c-6 -10 -2 -38 11 -61 12 -23 17 -48 11 -54 -14 -14 26
-65 50 -65 10 0 18 14 18 31 0 19 -9 26 -23 17 -13 -8 -18 -5 -11 6 7 11 1 37
-14 57 -15 21 -23 49 -18 63 12 30 -6 35 -24 6z"/>
<path d="M3050 4227 c4 -20 8 -45 8 -54 1 -10 23 -12 48 -6 48 12 107 -50 83
-88 -6 -10 3 -19 20 -19 17 0 31 -7 31 -17 0 -41 -118 -15 -143 32 -22 43 -28
44 -49 16 -21 -29 -24 -29 -35 -1 -7 19 -4 27 7 20 11 -7 20 -3 20 9 0 30 -24
25 -75 -18 -54 -45 -57 -60 -10 -49 47 12 156 -20 150 -43 -3 -11 -14 -19 -26
-19 -11 0 -28 -12 -37 -26 -10 -17 -34 -22 -67 -14 -57 15 -93 -20 -57 -56 45
-45 222 -5 222 52 0 9 -10 10 -23 2 -13 -8 -19 -3 -13 14 5 15 31 29 58 31 26
2 64 4 83 5 45 3 45 54 0 71 -31 12 -29 17 14 50 l49 37 -54 -10 c-37 -8 -57
-1 -66 22 -7 17 -26 32 -44 32 -17 0 -47 14 -66 32 -32 29 -34 29 -28 -5z"/>
<path d="M4971 4211 c1 -26 11 -60 23 -75 12 -14 36 -55 54 -91 18 -36 45 -65
60 -65 24 0 63 -86 56 -123 -1 -7 15 -17 37 -23 46 -12 49 2 12 57 -44 65 -54
109 -25 109 14 0 50 -45 78 -100 40 -77 45 -100 23 -100 -38 0 -37 -48 1 -80
51 -42 92 102 51 178 -15 28 -14 41 2 46 15 5 18 28 9 64 -9 38 -23 52 -43 44
-24 -9 -26 -3 -9 27 13 26 13 43 0 51 -11 7 -20 -2 -20 -19 0 -17 -8 -31 -18
-31 -10 0 -13 -19 -7 -42 13 -49 -68 -20 -88 32 -5 15 -24 32 -41 39 -28 10
-28 7 -4 -22 24 -29 24 -32 0 -24 -15 5 -50 51 -77 103 -55 105 -77 118 -74
45z"/>
<path d="M2673 4198 c-20 -12 -41 -16 -48 -10 -6 6 -23 2 -38 -11 -20 -16 -35
-15 -57 3 -25 20 -30 19 -30 -9 0 -19 -13 -47 -30 -64 -32 -32 -40 -69 -15
-65 40 7 66 -4 55 -22 -7 -11 8 -20 34 -20 26 0 37 7 25 15 -59 40 -48 85 19
85 51 0 70 10 78 41 6 22 21 38 35 35 13 -3 28 5 33 19 11 30 -11 31 -61 3z"/>
<path d="M5125 4186 c19 -5 35 -17 35 -27 0 -21 79 -66 93 -53 22 23 -65 94
-112 92 -34 -2 -39 -6 -16 -12z"/>
<path d="M2689 4111 c-22 -17 -61 -30 -88 -30 -36 -1 -43 -7 -27 -23 28 -28
166 18 166 56 0 33 -4 33 -51 -3z"/>
<path d="M4880 4111 c0 -26 45 -101 90 -151 64 -72 80 -146 27 -129 -36 12
-38 8 -17 -32 17 -30 29 -37 39 -21 11 18 21 16 40 -7 18 -21 19 -31 3 -31
-12 0 -22 -10 -22 -22 0 -14 19 -18 50 -10 37 9 54 4 63 -19 7 -19 18 -24 25
-12 8 12 32 5 62 -18 45 -35 46 -39 10 -36 -119 9 -152 -2 -130 -43 12 -22 16
-40 10 -40 -6 0 8 -36 30 -81 39 -76 80 -91 80 -28 0 15 18 62 39 103 49 93
37 149 -39 183 -34 15 -54 36 -48 52 6 14 -5 32 -23 39 -25 9 -30 4 -21 -21
11 -27 8 -28 -17 -8 -17 14 -26 33 -20 43 17 27 -52 132 -104 160 -26 13 -51
40 -57 59 -12 36 -70 95 -70 70z"/>
<path d="M2820 4078 c0 -11 -10 -14 -23 -6 -14 9 -18 5 -9 -9 8 -13 3 -23 -12
-23 -21 -1 -20 -4 1 -18 15 -9 46 -12 68 -6 27 7 36 3 28 -12 -9 -14 4 -19 37
-16 57 6 93 32 44 32 -17 0 -39 12 -48 27 -21 34 -86 58 -86 31z"/>
<path d="M2665 4020 c-32 -50 -31 -60 2 -60 15 0 37 23 49 50 29 63 -13 71
-51 10z"/>
<path d="M3378 3951 c-2 -6 -4 -18 -6 -26 -7 -36 -37 -65 -68 -64 -30 0 -29 4
5 29 21 16 33 34 28 40 -14 14 -86 -53 -92 -86 -4 -15 3 -21 15 -14 11 7 20
-2 20 -19 0 -37 -23 -40 -58 -6 -22 20 -24 16 -12 -25 14 -48 13 -48 -16 -11
-35 46 -134 17 -134 -39 0 -25 8 -27 39 -11 55 30 77 26 90 -16 14 -44 99 -87
141 -70 38 14 38 22 -3 62 -30 31 -31 30 -19 -9 13 -40 10 -41 -37 -20 -28 13
-51 31 -51 40 0 9 9 11 20 4 11 -7 20 -2 20 11 0 16 20 20 60 12 34 -7 60 -3
60 8 0 10 -20 19 -45 19 -36 1 -39 4 -15 20 17 11 50 20 75 20 34 0 46 12 48
50 2 28 4 61 5 75 2 24 -66 49 -70 26z"/>
<path d="M4689 3914 c-8 -21 -4 -47 11 -60 20 -19 23 -18 12 1 -8 14 -5 25 7
25 11 0 21 -10 21 -22 0 -13 41 -89 92 -170 50 -81 93 -160 96 -177 2 -16 12
-37 21 -45 10 -9 11 -6 4 7 -7 13 -3 27 10 31 17 6 14 27 -10 75 -18 37 -33
79 -33 93 0 15 -18 47 -40 72 -23 25 -72 82 -109 126 -59 69 -70 75 -82 44z"/>
<path d="M2545 3807 c-32 -13 -32 -60 -2 -79 16 -10 20 -4 11 18 -7 18 -4 38
7 45 10 6 19 3 19 -8 0 -10 14 -24 30 -30 25 -10 27 -5 10 27 -22 41 -31 44
-75 27z"/>
<path d="M3553 3755 c5 -8 -6 -15 -25 -15 -60 0 -22 -16 87 -36 105 -18 150 4
55 28 -27 7 -45 19 -40 28 5 9 -12 14 -38 13 -27 -2 -44 -10 -39 -18z"/>
<path d="M3113 3676 c-6 -24 -2 -55 9 -68 14 -17 13 -29 -3 -39 -13 -8 -29 -4
-37 7 -8 14 -24 15 -43 3 -24 -15 -23 -18 6 -19 21 0 35 -15 35 -38 0 -21 -11
-37 -25 -37 -110 4 -114 -44 -8 -99 56 -28 60 -29 37 -1 -18 22 -19 36 -5 45
12 7 16 21 10 32 -6 10 2 23 18 30 17 6 26 23 20 38 -6 16 2 25 21 22 38 -5
67 -32 35 -32 -12 0 -23 -12 -23 -28 0 -15 15 -26 33 -25 18 2 36 -6 40 -17 4
-11 -20 -20 -53 -20 -33 0 -60 -7 -60 -15 -1 -88 1 -91 40 -81 41 11 56 46 20
46 -11 0 -20 10 -20 22 0 16 9 15 30 -2 16 -13 43 -19 59 -13 19 7 25 1 18
-18 -6 -16 -22 -29 -34 -29 -15 -1 -14 -6 3 -17 24 -15 -134 -43 -418 -73
-111 -12 -284 17 -333 55 -35 27 -32 -8 4 -56 34 -44 40 -121 12 -138 -10 -6
-22 9 -27 34 -5 25 -10 -1 -11 -58 -3 -101 24 -141 87 -130 11 2 3 -9 -17 -25
-20 -16 -31 -39 -23 -52 10 -16 21 -16 40 0 28 23 67 -10 42 -35 -7 -6 -12 1
-13 17 0 19 -7 17 -21 -8 -24 -40 30 -101 75 -85 13 5 29 -11 36 -35 9 -27 18
-34 24 -19 15 36 47 31 47 -7 0 -22 12 -29 39 -23 26 7 35 2 28 -16 -13 -33
140 -59 248 -41 41 6 136 16 211 20 75 5 147 18 160 28 13 11 52 25 87 33 35
7 69 26 75 42 11 29 76 42 67 14 -3 -8 4 -15 15 -15 11 0 18 16 15 36 -4 28 4
34 35 24 31 -10 40 -4 40 27 0 49 32 74 48 38 6 -14 7 -5 0 20 -7 30 0 49 21
57 17 7 31 28 31 48 0 20 14 41 32 48 48 19 55 15 29 -17 -14 -16 -21 -41 -16
-55 5 -17 17 -9 33 20 20 38 19 55 -5 93 -28 43 -27 47 18 72 46 24 47 27 14
60 -37 36 -73 31 -59 -8 4 -13 -9 -44 -29 -70 -20 -26 -32 -56 -26 -65 6 -10
2 -18 -10 -18 -11 0 -21 -14 -21 -31 0 -31 -50 -118 -93 -163 -18 -20 -28 -19
-47 4 -15 18 -44 24 -79 17 -31 -6 -62 -1 -70 11 -7 12 -23 22 -35 22 -13 0
-11 -11 4 -30 31 -37 9 -67 -24 -34 -13 13 -40 24 -60 24 -20 0 -36 10 -36 22
0 16 -9 15 -30 -2 -16 -14 -31 -17 -32 -7 -8 94 -38 139 -38 57 0 -54 -2 -55
-38 -22 -29 27 -40 29 -48 8 -9 -21 -16 -20 -34 4 -18 24 -20 22 -10 -15 16
-57 -23 -60 -40 -4 -13 39 -15 39 -39 7 -14 -19 -35 -28 -47 -21 -11 8 -27 5
-34 -7 -7 -11 9 -20 39 -20 58 0 62 -14 20 -69 -25 -34 -29 -34 -29 -5 0 19
-15 34 -32 34 -27 0 -28 -5 -8 -30 20 -24 19 -30 -6 -30 -18 0 -37 9 -45 21
-7 11 -29 15 -50 9 -39 -13 -112 113 -88 151 11 19 -111 59 -136 45 -31 -17
-13 -46 35 -58 28 -7 50 -25 50 -41 0 -22 -9 -24 -39 -8 -21 12 -52 15 -70 9
-23 -9 -28 -4 -19 21 7 18 5 31 -5 29 -29 -7 -127 40 -127 61 0 66 177 85 368
41 177 -41 512 19 512 91 0 60 255 189 373 189 25 0 49 8 55 17 6 10 40 23 77
29 36 6 81 17 101 25 31 12 34 7 22 -41 -10 -40 -7 -52 9 -42 13 8 23 31 23
52 0 21 9 43 20 50 11 7 20 26 20 44 0 17 36 67 80 111 93 93 99 115 30 115
-27 0 -50 -10 -50 -21 0 -12 -8 -16 -18 -10 -10 6 -23 -3 -29 -19 -7 -17 -22
-30 -35 -30 -13 0 -36 -16 -50 -35 -25 -33 -27 -33 -27 2 -1 31 -6 34 -31 13
-16 -14 -30 -17 -30 -7 0 9 -36 18 -79 20 -61 2 -76 -4 -67 -26 6 -16 23 -25
38 -19 16 6 22 -1 15 -18 -6 -15 -23 -23 -39 -17 -17 7 -28 -1 -28 -21 0 -18
-13 -32 -30 -32 -16 0 -30 -9 -30 -19 0 -11 -13 -15 -28 -9 -22 8 -24 26 -10
74 10 35 18 66 18 68 0 3 -13 0 -30 -7 -16 -6 -25 -19 -19 -29 21 -34 -13 -61
-44 -35 -17 14 -11 -9 15 -52 l45 -75 -64 32 c-35 19 -63 24 -63 13 0 -12 -20
-20 -45 -20 -42 2 -42 3 -6 17 39 15 39 16 0 38 -33 20 -35 26 -10 43 17 10
23 26 15 34 -33 32 -99 -65 -75 -111 15 -28 15 -42 2 -42 -12 0 -21 9 -21 20
0 11 -14 20 -31 20 -16 0 -35 13 -42 30 -6 16 -19 25 -29 19 -10 -6 -18 -2
-18 10 0 11 10 21 22 21 16 0 16 8 -1 29 -13 16 -36 24 -50 18 -15 -5 -41 11
-59 36 -30 43 -30 47 0 58 28 9 28 14 2 35 -24 21 -31 17 -41 -20z m-346 -866
c-6 -17 -20 -30 -31 -30 -11 0 -15 14 -9 30 7 19 0 30 -19 30 -17 0 -25 9 -18
20 19 32 91 -15 77 -50z m576 -15 c-24 -24 -87 -12 -97 18 -5 13 8 27 28 32
46 10 94 -25 69 -50z"/>
<path d="M3415 3692 c-46 -35 -44 -52 5 -52 22 0 40 -9 40 -20 0 -11 27 -20
60 -20 33 0 60 9 60 20 0 11 16 20 35 21 32 0 32 2 -2 22 -28 16 -42 15 -53
-3 -23 -37 -122 -9 -107 30 14 36 7 37 -38 2z"/>
<path d="M2620 3610 c0 -20 67 -70 94 -70 24 0 26 6 8 28 -21 25 -102 58 -102
42z"/>
<path d="M4573 3527 c-7 -8 -13 -34 -13 -59 0 -24 -8 -48 -18 -51 -9 -4 -6
-61 9 -127 14 -66 27 -111 29 -100 3 22 11 350 8 350 -1 0 -7 -6 -15 -13z"/>
<path d="M5083 3436 c3 -41 0 -80 -7 -87 -17 -16 23 -129 45 -129 67 0 71 124
8 216 l-52 74 6 -74z"/>
<path d="M4955 3409 c-14 -15 7 -108 27 -120 10 -6 18 -30 18 -54 0 -23 15
-58 33 -78 19 -21 23 -37 11 -37 -13 0 -18 -13 -11 -30 7 -19 0 -30 -21 -30
-28 0 -28 -4 3 -40 18 -22 41 -40 49 -40 26 0 18 56 -9 67 -19 8 -19 10 1 11
15 1 21 11 14 22 -7 11 -3 20 9 20 30 0 26 51 -7 78 -25 21 -61 132 -54 168 4
21 -50 75 -63 63z"/>
<path d="M4033 3173 c4 -32 8 -73 8 -90 1 -25 6 -24 19 7 23 54 24 95 1 81
-10 -6 -22 4 -27 24 -5 19 -5 9 -1 -22z"/>
<path d="M3645 3200 c13 -48 -40 -86 -104 -73 -64 13 -70 -29 -23 -152 20 -53
62 -76 62 -34 0 24 82 -14 104 -48 8 -13 23 3 35 36 12 31 26 63 31 72 5 8 -2
13 -15 12 -14 -2 -27 6 -30 17 -2 11 7 21 20 23 59 6 63 11 25 27 -39 17 -39
18 5 31 61 18 57 53 -4 45 -31 -4 -61 9 -81 34 -20 25 -30 29 -25 10z"/>
<path d="M4541 3132 c-17 -21 -17 -32 -1 -42 13 -8 31 -33 40 -57 16 -40 18
-39 19 12 0 31 -10 55 -24 55 -18 1 -18 5 2 18 17 10 19 22 7 29 -11 7 -30 0
-43 -15z"/>
<path d="M3370 3038 c4 -21 -1 -38 -11 -38 -11 0 -19 -13 -19 -30 0 -36 10
-37 64 -8 33 18 36 26 14 40 -22 14 -20 17 8 18 45 0 28 32 -24 45 -30 8 -37
2 -32 -27z"/>
<path d="M4309 3033 c6 -20 17 -61 24 -90 20 -83 76 -153 58 -73 -8 33 -15 75
-17 94 -1 19 -7 30 -12 24 -6 -5 -22 11 -37 36 -18 30 -24 33 -16 9z"/>
<path d="M4726 2982 c-6 -23 -19 -36 -30 -29 -13 7 -17 -44 -13 -141 6 -117 2
-150 -18 -143 -15 6 -25 -6 -25 -30 0 -34 6 -37 39 -20 51 28 95 8 115 -52
l17 -51 49 40 c41 33 45 44 22 71 -39 48 -18 86 25 43 56 -55 86 -8 40 62 -20
31 -26 50 -13 42 44 -28 53 32 9 67 -24 20 -43 45 -43 57 0 12 -10 22 -21 22
-12 0 -16 -8 -10 -18 6 -9 -1 -27 -16 -40 -21 -17 -32 -5 -50 57 -29 94 -61
121 -77 63z"/>
<path d="M4965 2895 c-2 -28 12 -56 37 -72 38 -23 40 -21 34 41 -7 78 -65 103
-71 31z"/>
<path d="M2432 2873 c7 -19 0 -49 -15 -67 -24 -29 -23 -32 10 -20 20 8 40 14
45 14 21 0 5 58 -22 80 -26 22 -29 20 -18 -7z"/>
<path d="M2495 2705 c-6 -52 -17 -111 -25 -130 -8 -19 -6 -35 4 -35 22 0 60
110 63 184 4 95 -32 79 -42 -19z"/>
<path d="M3551 2661 c-20 -22 -31 -47 -24 -55 19 -19 79 45 70 74 -5 14 -22 8
-46 -19z"/>
<path d="M4650 2560 c22 -9 58 -23 80 -32 39 -15 39 -15 -4 -23 -28 -5 -40
-18 -33 -36 19 -49 78 -34 82 20 5 55 -44 92 -119 90 -43 -2 -44 -3 -6 -19z"/>
<path d="M3200 2468 c0 -24 12 -29 45 -21 25 7 52 13 60 13 48 1 4 40 -45 40
-42 0 -60 -10 -60 -32z"/>
</g>
</svg>
